<svg xmlns="http://www.w3.org/2000/svg" viewBox="0 0 249.36 80.03" width="380"><defs><style>.cls-1{fill:#6c6c6c;}.cls-2{fill:#999;}.cls-3{fill:#6d6d6d;}.cls-4{fill:#9b9b9b;}.cls-5{fill:#989898;}</style></defs><title>Element 9</title><g id="Ebene_2" data-name="Ebene 2"><g id="Ebene_1-2" data-name="Ebene 1"><path class="cls-1" d="M0,7.44C.23,6.64.42,5.82.7,5A6.24,6.24,0,0,1,6.7.7C10.41.55,13.78,1.8,17,3.36c8.37,4,15.65,9.58,22.65,15.57a4.49,4.49,0,0,1,.4.53c-1.25-.65-2.23-1.19-3.24-1.67A10.8,10.8,0,0,0,32,16.53c-1.74,0-3,.88-3.19,2.62a28.09,28.09,0,0,0,0,6.08,37.25,37.25,0,0,0,11.4,23.18A37.72,37.72,0,0,0,66.67,59.16,4.94,4.94,0,0,0,71,57.4,11.93,11.93,0,0,1,71.74,65,4.58,4.58,0,0,1,69,68.15a12.94,12.94,0,0,1-4.24,1.15c-11.58.3-22.9-1.13-33.62-5.78C15.75,56.84,6.3,45.11,2.17,28.94a66.07,66.07,0,0,1-2-12.89c0-.39-.13-.78-.2-1.17Z"/><path class="cls-2" d="M66.24,0c3,1.9,4,5,5,8.09A71.69,71.69,0,0,1,74,22.18a110.43,110.43,0,0,1,.66,15.32,42.58,42.58,0,0,1-1.7,12.3,14.38,14.38,0,0,1-2.19,4.06A2.9,2.9,0,0,1,67,54.4a8.08,8.08,0,0,1-1.49-1A36,36,0,0,1,54.17,34.9,36,36,0,0,1,60,4.27,12.82,12.82,0,0,1,64.32,0Z"/><path class="cls-1" d="M249.36,38.64H247c-1.58-2.6-3.08-5.1-4.61-7.57a2.11,2.11,0,0,0-1.91-1.3v8.79h-2.06V18.8c2.47,0,5-.48,7.37.62,2.05.94,3.1,3.73,2.52,6.32a4.42,4.42,0,0,1-4.19,3.88c0,.14-.09.24-.06.28Q246.5,34,249,38a2.63,2.63,0,0,0,.4.42Zm-8.79-18v7.41c1.86-.06,3.81.62,5-1.33a4.22,4.22,0,0,0,0-4.65C244.38,20.22,242.46,20.69,240.57,20.67Z"/><path class="cls-2" d="M131.52,38.53h-3.17c-1-4.82-2.07-9.56-3.1-14.3h-.11c-.24,4.75-.49,9.5-.74,14.32h-3.49c.51-6.6,1-13.1,1.51-19.74h4.67c.95,4.51,1.93,9.1,2.9,13.69l.15,0c1-4.56,2-9.12,2.94-13.77h4.61c.49,6.59,1,13.1,1.47,19.74h-3.42c-.24-4.73-.48-9.43-.72-14.14l-.21,0C133.72,29.08,132.62,33.79,131.52,38.53Z"/><path class="cls-2" d="M84.38,1h2.4V80h-2.4Z"/><path class="cls-1" d="M111.51,59.12A14.57,14.57,0,0,1,112.6,53c1.28-2.88,3.41-4.44,6.63-4.35a6.5,6.5,0,0,1,6.22,4.62,16,16,0,0,1-.28,12.25,6,6,0,0,1-5.48,3.82,6.57,6.57,0,0,1-6.7-3.45A13.31,13.31,0,0,1,111.51,59.12Zm11.28-.19a45.36,45.36,0,0,0-.82-5,2.87,2.87,0,0,0-3.16-2.37A3,3,0,0,0,115.93,54a19.94,19.94,0,0,0,0,10.06,3.93,3.93,0,0,0,.5,1.08,2.78,2.78,0,0,0,2.14,1.37,3,3,0,0,0,3.53-2.65C122.47,62.32,122.56,60.72,122.79,58.93Z"/><path class="cls-3" d="M146.31,56.82h5.22V49.09h3.35V69h-3.29V60.16H146.4V69H143V49.1h3.33Z"/><path class="cls-1" d="M105.87,56.77V49.11h3.25V69a7.76,7.76,0,0,1-.87.1c-.71,0-1.43,0-2.35,0v-9h-5.27V69H97.28V49.1h3.26v7.67Z"/><path class="cls-1" d="M198.64,49.11V69h-3.28V60.12h-5.25V69h-3.33V49.1H190v7.67h5.27V49.11Z"/><path class="cls-1" d="M210.68,49.08H214c0,.38.11.69.11,1,0,4.67,0,9.35,0,14a4.72,4.72,0,0,1-4.16,5.06,11.92,11.92,0,0,1-4,.07,4.64,4.64,0,0,1-4.18-4.8c-.11-5,0-10,0-15a1.38,1.38,0,0,1,.12-.34H205c0,.48.1,1,.1,1.41V62.27q0,.78.06,1.56c.2,2,1.45,3,3.44,2.6a2.08,2.08,0,0,0,1.83-1.66,9.85,9.85,0,0,0,.23-2c0-4,0-8.07,0-12.11Z"/><path class="cls-2" d="M109.57,33.79l-1.28,4.72h-3.56l5.58-19.77h4.12L119.8,38.5h-3.74l-1.22-4.71ZM112.36,23h-.21l-1.78,7.68h3.69Z"/><path class="cls-1" d="M169.89,50.61,168.35,53a5.72,5.72,0,0,0-1.15-.63,15,15,0,0,0-3.2-.73,2.13,2.13,0,0,0-2.21,1.68A2.41,2.41,0,0,0,163.08,56c1.16.61,2.36,1.16,3.55,1.73,2.77,1.33,4.05,3.5,3.65,6.21a6,6,0,0,1-5.36,5.32,10.25,10.25,0,0,1-7.71-1.75L158.59,65a29,29,0,0,0,3.62,1.32,5.73,5.73,0,0,0,2.46-.15A2.31,2.31,0,0,0,166.48,64a2.22,2.22,0,0,0-1.13-2.34c-1.35-.77-2.77-1.43-4.16-2.13a5.35,5.35,0,0,1-3.07-6.34,5.55,5.55,0,0,1,2.73-3.75C163.2,48,168,48.65,169.89,50.61Z"/><path class="cls-1" d="M238.3,52.08h-5.91v5h4.85v3h-4.86V66h6.44v3h-10V49.11h9.86Z"/><path class="cls-2" d="M172.18,35.52h6.29v3h-9.84V18.8h9.92l-.49,2.81H172.2v5.07H177v3h-4.85Z"/><path class="cls-1" d="M191.8,18.83h2.38c2.35,5.31,4.71,10.67,7,15.93V18.88h1.89V38.59h-2.24l-7.12-16.13V38.54H191.8Z"/><path class="cls-1" d="M184.43,50.29l-1.52,2.42a16.24,16.24,0,0,0-2.56-.88,3,3,0,0,0-3.46,1.77,5.28,5.28,0,0,0-.69,2q-.12,3.39,0,6.79a4.1,4.1,0,0,0,.65,1.77c1.31,2.28,3.3,2.8,5.59,1.51l.81-.43,1.47,2.42A13.39,13.39,0,0,1,183,68.74c-3.76,1.49-8.24.52-10-4a14.62,14.62,0,0,1,.51-12,7,7,0,0,1,9.65-3.27A11.46,11.46,0,0,1,184.43,50.29Z"/><path class="cls-1" d="M140.71,50.32l-1.53,2.41a15,15,0,0,0-2.35-.88A3.17,3.17,0,0,0,133,54.06a14.29,14.29,0,0,0-.18,9.29c.86,2.68,3.22,4,6.09,2.27l.65-.38L141,67.63a7.44,7.44,0,0,1-6.45,1.6,6.63,6.63,0,0,1-5.34-4.79,14.83,14.83,0,0,1,.75-12,7.08,7.08,0,0,1,9.68-2.95A10.68,10.68,0,0,1,140.71,50.32Z"/><path class="cls-1" d="M211.28,38.64V18.82c2.62-.12,5.16-.27,7.6.74a6.4,6.4,0,0,1,3.77,4.67,17.19,17.19,0,0,1-.21,9.46,6.59,6.59,0,0,1-6.79,5Zm2.17-17.93V36.8c.76,0,1.39,0,2,0,2.79-.13,4.26-1.25,4.93-4a16.65,16.65,0,0,0-.12-8.41,4.8,4.8,0,0,0-4.11-3.69A16.44,16.44,0,0,0,213.45,20.71Z"/><path class="cls-2" d="M96.84,38.53V18.79h9.45L106,21.6h-5.51v5.19h4.33v2.92h-4.43v8.82Z"/><path class="cls-1" d="M226.55,69h-9.16V49.11h3.37V66h6.34Z"/><path class="cls-2" d="M159,38.56h-9.09V18.8h3.23V35.52h6.36Z"/><path class="cls-1" d="M228,20.59v6.78h5.74v1.81H228v7.54h7.36v1.84h-9.51V18.85h9.33l-.3,1.74Z"/><path class="cls-4" d="M142.46,38.54V18.78h3.31V38.54Z"/><path class="cls-5" d="M164.51,38.55h-3.14V18.81h3.14Z"/><path class="cls-3" d="M188.1,38.57h-1.91V18.84h1.91Z"/></g></g></svg>