<svg xmlns="http://www.w3.org/2000/svg" viewBox="0 0 302.72 97.75" width="380"><defs><style>.cls-1{fill:#6e6e6e;}.cls-2{fill:#989898;}.cls-3{fill:#313131;}.cls-4{fill:#717171;}.cls-5{fill:#6f6f6f;}.cls-6{fill:#707070;}.cls-7{fill:#727272;}.cls-8{fill:#757575;}.cls-9{fill:#7a7a7a;}.cls-10{fill:#737373;}.cls-11{fill:#7c7c7c;}.cls-12{fill:#838383;}</style></defs><title>Element 5</title><g id="Ebene_2" data-name="Ebene 2"><g id="Ebene_1-2" data-name="Ebene 1"><path class="cls-1" d="M194.79,33.32c-5.86.44-11.74.66-17.62.73-6.28.08-12.47,1.22-18.73,1.56-6.91.39-13.78,1.28-20.69,1.67-3.15.17-6.27.67-9.43.55-1.56-.06-3.12-.14-4.68-.19a9.82,9.82,0,0,0-2.42.15,1,1,0,0,1-1.36-.79c-.15-.66.16-1.06.8-1.36a7.64,7.64,0,0,1,3.7-.66c4.35.2,8.6-.67,12.89-1.11,3.58-.36,7.2-.54,10.75-1.15,6.32-1.09,12.72-1.35,19.07-2.14,3-.37,6-.87,9-1.12,3.49-.28,7-.35,10.5-.62,4.24-.33,8.47-.77,12.7-1.17a6.64,6.64,0,0,0,.94-.27,2.64,2.64,0,0,1,3.39,1.94,2.7,2.7,0,0,1-1.93,3.41A21.76,21.76,0,0,1,194.79,33.32Z"/><path class="cls-1" d="M22.08,55.79H14.84a12,12,0,0,1,0-3.28H25.87a1.38,1.38,0,0,1,.21,1.05c0,4.19,0,8.38,0,12.58a1.33,1.33,0,0,1-1,1.45,21.32,21.32,0,0,1-12.36,1.78c-5.69-1-8.91-4.72-10.38-10A26.46,26.46,0,0,1,2.53,44.8c2.82-9.72,12.45-11.42,19-8.49a7.56,7.56,0,0,1,4.33,5c.35,1.22.15,1.43-1.1,1.44-.23,0-.45,0-.68,0-1.14.11-1.88,0-2.41-1.41-.77-2-2.81-2.7-4.85-2.9-4.55-.44-7.82,1.48-9.44,5.74A22.42,22.42,0,0,0,7.3,60c1.84,5.1,5.74,7.1,11.16,6,1-.2,2-.53,3-.81.32-.09.62-.22.62-.64C22.08,61.72,22.08,58.83,22.08,55.79Z"/><path class="cls-1" d="M59.1,68.65h-4c-.53,0-.57-.45-.71-.8-.93-2.46-1.88-4.91-2.78-7.39a1,1,0,0,0-1.12-.79q-6.33,0-12.68,0a1,1,0,0,0-1.15.76c-1,2.47-2.05,4.91-3,7.39a1.14,1.14,0,0,1-1.3.85c-.94,0-1.88,0-2.82,0-.17-.48.09-.81.23-1.14Q36,52.28,42.19,37c.3-.74.68-1.08,1.49-1,1.07.1,2.33-.37,3.16.18s.9,1.87,1.28,2.87Q53.54,53.33,58.91,67.6A1.46,1.46,0,0,1,59.1,68.65ZM50,56.37c-1.9-5-3.72-9.86-5.55-14.69H44.2L38.28,56.32c.45,0,.74,0,1,0Z"/><path class="cls-1" d="M107.48,65v3.58H88.08c-.28-.29-.18-.7-.18-1.08q0-15.11,0-30.22c0-.9.19-1.25,1.18-1.24,5.39,0,10.79,0,16.18,0,.88,0,1.18.24,1.16,1.14,0,2.45,0,2.45-2.48,2.45-3.51,0-7,0-10.53,0-.88,0-1.2.23-1.18,1.15.05,2.66.05,5.33,0,8,0,.87.23,1.19,1.15,1.18,3.35-.05,6.7,0,10,0,.35,0,.7,0,1.12.05a17.77,17.77,0,0,1,0,3.09,2.2,2.2,0,0,1-1.23.17c-3.35,0-6.69,0-10,0-.81,0-1.07.25-1.07,1.06,0,3.22.05,6.44,0,9.65,0,.89.33,1.09,1.15,1.08,4.28,0,8.58,0,12.87,0Z"/><path class="cls-2" d="M153.15,70.24a3.36,3.36,0,0,1-3-1.79,3,3,0,0,1,.18-3.4,24.4,24.4,0,0,1,4-5c1.07-.92,1.52-2.33,2.41-3.41a43.26,43.26,0,0,1,8.87-7.73C168,47.19,170,45,172.15,43.12a2.68,2.68,0,0,1,.93-.68,6,6,0,0,0,3.14-2.51,8,8,0,0,1,4.51-3.34c1.06-.24,1.79-.16,2.2.62s.18,1.62-.83,2.17a6.28,6.28,0,0,0-3,3.43,8.4,8.4,0,0,1-2.31,3.11c-2,1.87-3.73,4-5.68,5.89-1.31,1.27-2.74,2.39-4.08,3.63a34.55,34.55,0,0,0-6.46,7.5,3.85,3.85,0,0,1-.78,1A21.42,21.42,0,0,0,156,68.53,3.18,3.18,0,0,1,153.15,70.24Z"/><path class="cls-3" d="M134,65.43a3.45,3.45,0,0,1,1.66-3A9.36,9.36,0,0,0,139,58.63a2.58,2.58,0,0,1,.78-1c2.29-1.72,3.86-4.12,5.85-6.12a6.31,6.31,0,0,1,2.59-1.82,4,4,0,0,0,1.87-1.51c2.22-2.72,4.75-5.16,7.17-7.7.94-1,2.05-1.77,2.93-2.84.58-.72,1.24-.57,1.55.3a2.79,2.79,0,0,1-.13,2.9,11.94,11.94,0,0,0-1.19,2.46,7.06,7.06,0,0,1-1.9,2.66,10.88,10.88,0,0,0-2.11,2.29c-2.07,3.55-5,6.34-7.73,9.37a37.86,37.86,0,0,0-5.33,6.68A15.84,15.84,0,0,1,140,68.13a3.22,3.22,0,0,1-3.71.64A3.58,3.58,0,0,1,134,65.43Z"/><path class="cls-1" d="M122.07,69.85a3.39,3.39,0,0,1-3.44-4.46,19.18,19.18,0,0,1,4-7.15,92,92,0,0,1,7.77-7.65,34.44,34.44,0,0,1,4-3.24,20.6,20.6,0,0,0,4.12-4.27A7.54,7.54,0,0,1,143,40.25c1.41-.29,2.59.45,3.84.83.54.16.26.72,0,1.06a6.4,6.4,0,0,1-2.4,2,4.72,4.72,0,0,0-1.46,1.2c-1.53,1.64-2.79,3.51-4.45,5a90.34,90.34,0,0,0-11.42,13.28,14,14,0,0,0-1.85,3.85A3.15,3.15,0,0,1,122.07,69.85Z"/><path class="cls-1" d="M58,39.21V36.12H84.1a9.47,9.47,0,0,1,.1,2.65c0,.7-.57.59-1,.59H74.71c-1.36,0-1.36,0-1.36,1.4V67.2a3.55,3.55,0,0,1-.13,1.39h-4c-.31-.42-.18-.89-.19-1.33V40.63c0-1.26,0-1.27-1.3-1.27H59.28A2.57,2.57,0,0,1,58,39.21Z"/><path class="cls-1" d="M179.78,8.08a1.52,1.52,0,0,0,1.34.86,33.11,33.11,0,0,0,11.62-.15c2-.43,3.94-.81,5.92-1.19,1.19-.23,1.93.19,2.2,1.2s-.22,1.69-1.34,2.11c-2.55.95-5.21,1.62-7.69,2.76a1.84,1.84,0,0,1-.66.17,38.82,38.82,0,0,1-10.87-.25,6.21,6.21,0,0,1-4.42-3.21A3.83,3.83,0,0,1,177.09,5a14.89,14.89,0,0,1,6-2.75C185.44,1.82,187.64.79,190,.3a32.71,32.71,0,0,1,5-.3,1,1,0,0,1,1,.53A2.63,2.63,0,0,0,197,1.61a1.53,1.53,0,0,1,.52,1.67,1.58,1.58,0,0,1-1.2,1.28c-.51.13-1.13.17-1.32-.46s-.6-.64-1.12-.61a19.64,19.64,0,0,0-6.15,1.34,16.82,16.82,0,0,1-3.74,1.07C182.28,6.13,181.19,7.38,179.78,8.08Z"/><path class="cls-1" d="M245.07,68.23v-7a15.42,15.42,0,0,0-.16-2.63,2.07,2.07,0,0,0-2.73-1.75A3.89,3.89,0,0,0,239.42,60a14.28,14.28,0,0,0-.2,3.39v4.78a2.85,2.85,0,0,1-1.76.18c-.65,0-.49-.58-.49-1,0-2.63,0-5.26-.06-7.9,0-1.09-.19-2.1-1.38-2.54a2.72,2.72,0,0,0-3,.88,4.12,4.12,0,0,0-1.33,3c-.05,1.94-.05,3.9-.06,5.85s-.23,2.09-2.21,1.6V55.3c1.59-.6,2-.34,2.34,1.65a4.79,4.79,0,0,1,4-2.24,3.87,3.87,0,0,1,3.77,2.4c.5,0,.59-.45.81-.7a4.44,4.44,0,0,1,3.77-1.68,3.6,3.6,0,0,1,3.54,3.38c.29,3.18.09,6.37.13,9.56,0,.48-.18.73-.69.71A4.68,4.68,0,0,1,245.07,68.23Z"/><path class="cls-1" d="M195.51,59.21c0,2.74,0,5.31,0,7.87,0,.4-.24.56-.56.7a11.88,11.88,0,0,1-6.94,1c-3.23-.53-5.07-2.66-5.88-5.67a15.07,15.07,0,0,1,.15-8.47,7.65,7.65,0,0,1,10.76-4.52,4.1,4.1,0,0,1,2.46,3.44c-1.48.43-1.84.3-2.56-.84-.85-1.35-3.37-1.87-5.25-1.08a4.92,4.92,0,0,0-2.74,3,12.63,12.63,0,0,0-.14,8.51c1.36,4.09,4.53,4.47,7.93,3.33a.7.7,0,0,0,.5-.75c0-1.3,0-2.6,0-3.9,0-.61-.3-.77-.85-.76-.88,0-1.75,0-2.63,0-.53,0-.7-.27-.65-.73s-.24-1.11.54-1.13C191.57,59.18,193.48,59.21,195.51,59.21Z"/><path class="cls-1" d="M263.21,68.2c-1.84.49-2.25.28-2.67-1.31-.46,0-.66.36-.94.59a5.25,5.25,0,0,1-4.18,1.18,3.59,3.59,0,0,1-1.49-6.57,17,17,0,0,1,5.33-1.79c.47-.11,1.18.06,1.26-.64.09-.92.27-1.92-.6-2.63A3.35,3.35,0,0,0,255,58.17c-.12.27-.26.45-.56.44a5,5,0,0,1-1.91-.14,3.16,3.16,0,0,1,1.61-2.7,7,7,0,0,1,7.24-.23c1.24.63,1.45,1.84,1.46,3.08,0,2.31,0,4.61,0,6.92A19.68,19.68,0,0,0,263.21,68.2Zm-2.82-6.4a12.85,12.85,0,0,0-4.59,1.54,2,2,0,0,0-.93,2.35A1.94,1.94,0,0,0,256.93,67C259.38,67,261,64.61,260.39,61.8Z"/><path class="cls-1" d="M211.68,62h-9.27a4.64,4.64,0,0,0,1.77,4,4.28,4.28,0,0,0,4.08.49,1.27,1.27,0,0,0,.83-.65c.47-1.46,1.56-1,2.63-.92a3.76,3.76,0,0,1-2.29,3.11,6.26,6.26,0,0,1-9.19-4.93c-.31-2.54,0-4.94,2-6.84A5.77,5.77,0,0,1,208.31,55c2.15.66,3.08,2.37,3.35,4.48A20.76,20.76,0,0,1,211.68,62Zm-2.22-1.81a3.12,3.12,0,0,0-2.88-3.61,3.72,3.72,0,0,0-3.89,3.61Z"/><path class="cls-1" d="M283.78,73.39c0-.34,0-.63,0-.92-.05-.61.18-.89.83-.86,3,.11,3.43-1.14,4.45-3.49.18-.43,0-.75-.19-1.1L284,56.26c-.14-.32-.27-.65-.4-1,1.7-.57,2.36-.29,3,1.18,1.08,2.44,2.18,4.86,3.28,7.29.13.28.17.63.58.84,1-2.37,2-4.73,3-7.08l.38-.9c.72-1.69.82-1.75,2.7-1.44.16.27,0,.49-.11.72l-5.77,13.65c-.14.32-.3.65-.47,1C288.79,73.13,286.87,74,283.78,73.39Z"/><path class="cls-1" d="M268.71,68.3V55.24a3.4,3.4,0,0,1,2,0c.25.55,0,1.12.18,1.68.43,0,.5-.37.7-.58a4.78,4.78,0,0,1,5.08-1.37,3.5,3.5,0,0,1,2.71,3.22c.29,3.17.08,6.36.12,9.55,0,.42-.15.69-.61.67a3.41,3.41,0,0,1-1.64-.18c0-1.84,0-3.72,0-5.6a19.78,19.78,0,0,0-.12-3.69,2.47,2.47,0,0,0-3.09-2,3.93,3.93,0,0,0-3,3.41,60.25,60.25,0,0,0-.15,6.72,2.77,2.77,0,0,1-.14,1.27A4.65,4.65,0,0,1,268.71,68.3Z"/><path class="cls-1" d="M217.22,68.24v-13c1.71-.56,2.1-.32,2.35,1.46.37,0,.45-.33.64-.53a4.55,4.55,0,0,1,3.26-1.5c.89,0,1.37.27,1.24,1.24a3.08,3.08,0,0,1-.14,1.1,1.88,1.88,0,0,1-.34,0c-2.71-.54-4.59.89-4.71,3.69-.08,2,0,3.9,0,5.85S219.34,68.66,217.22,68.24Z"/><path class="cls-4" d="M181.66,95V90.69h-4.57c-.57,0-.56.43-.57.83,0,1,0,2,0,2.92,0,.3.07.71-.42.73s-.47-.44-.47-.76c0-2.67,0-5.33,0-8,0-.3-.09-.71.42-.71s.46.37.47.69c0,.85,0,1.69,0,2.54,0,.61.22.89.85.88,1.17,0,2.34,0,3.51,0,.58,0,.81-.22.79-.81,0-.91,0-1.82,0-2.73,0-.26,0-.54.37-.57s.51.24.51.56c0,2.79,0,5.59,0,8.38C182.55,95.19,182.23,95.27,181.66,95Z"/><path class="cls-5" d="M297.22,96c.37-.24.63-.14.92.17a2.17,2.17,0,0,0,2.65.52,1.94,1.94,0,0,0,1-2.29c-.09,0-.17,0-.21,0a2.85,2.85,0,0,1-3.27.42,3.07,3.07,0,0,1-1.48-3c-.05-2.27,1.21-3.65,3.1-3.49a3.09,3.09,0,0,1,1.79.91c.16-.36.21-.89.73-.69s.22.55.22.85c0,1.79,0,3.58,0,5.36a2.48,2.48,0,0,1-1.27,2.54,3.6,3.6,0,0,1-3.54-.11A1.11,1.11,0,0,1,297.22,96Zm.5-4.21c.06.31.1.64.19.94a2,2,0,0,0,1.9,1.65,2,2,0,0,0,1.89-1.67,3.19,3.19,0,0,0-.26-2.53,1.82,1.82,0,0,0-1.72-1,1.78,1.78,0,0,0-1.65,1.15A3.52,3.52,0,0,0,297.72,91.81Z"/><path class="cls-6" d="M60.14,88.7c.6-.31.82,0,1,.35,1.85-1.06,2.61-1,4.1.49.23-.21.45-.44.7-.64a2.28,2.28,0,0,1,3.8,1.51,41.84,41.84,0,0,1,0,4.19c0,.26,0,.54-.38.56s-.47-.27-.47-.57c0-1.18,0-2.35,0-3.52s-.5-1.83-1.48-1.92a1.77,1.77,0,0,0-2,1.62,12.49,12.49,0,0,0-.09,1.94c0,.58,0,1.17,0,1.75,0,.3.08.72-.44.69s-.35-.4-.35-.66c0-1.11,0-2.22,0-3.32,0-1.31-.57-2-1.62-2A1.79,1.79,0,0,0,61.07,91c-.08,1.13,0,2.27-.06,3.41,0,.31.06.71-.44.71s-.42-.41-.42-.71C60.14,92.53,60.14,90.62,60.14,88.7Z"/><path class="cls-5" d="M246.82,89.5a8.87,8.87,0,0,1,1.14-.87,2.21,2.21,0,0,1,3.35,1.82c.09,1.36,0,2.72,0,4.09,0,.28,0,.63-.42.61s-.37-.37-.38-.64c0-1.14,0-2.28,0-3.41S250,89.2,249,89.15A1.79,1.79,0,0,0,247,91c-.07,1.1,0,2.21,0,3.31,0,.32.16.81-.39.83s-.45-.53-.46-.87c0-1.1,0-2.21,0-3.31s-.55-1.74-1.49-1.82a1.76,1.76,0,0,0-2,1.51,22.59,22.59,0,0,0-.13,3.49c0,.36.28,1-.41,1s-.37-.66-.38-1c0-1.56,0-3.12,0-4.68,0-.29-.17-.68.27-.84s.49.34.66.58C244.36,88,245.15,88,246.82,89.5Z"/><path class="cls-5" d="M6.1,85.93,2,90l4.51,5c-.9.33-1,.31-1.59-.35L1.06,90.45a27.1,27.1,0,0,0-.14,4c0,.51-.07.95-.8.69A9.62,9.62,0,0,1,0,92.69c0-2.08,0-4.15,0-6.23,0-.3-.13-.72.37-.76s.49.4.51.75a17,17,0,0,0,.15,3c1.88-1,2.68-3.33,4.82-3.83Z"/><path class="cls-5" d="M278.59,93.18a2.61,2.61,0,0,1-2.65,2.2,2.72,2.72,0,0,1-2.88-1.85,4.59,4.59,0,0,1-.08-3.06,2.8,2.8,0,0,1,3-2.1,2.67,2.67,0,0,1,2.65,2.4,2.38,2.38,0,0,1,0,1.28H273.9a2,2,0,0,0,3.62,1.66C277.77,93.34,277.92,92.84,278.59,93.18Zm-4.75-2h3.92c-.14-1.38-.85-2.09-2-2.07S273.94,89.91,273.84,91.22Z"/><path class="cls-5" d="M99.12,92.1H94.34a2,2,0,0,0,1.32,2.39,2,2,0,0,0,2.42-.9c.26-.41.47-.71,1-.42a2.49,2.49,0,0,1-2.17,2.17A2.81,2.81,0,0,1,93.79,94a4.42,4.42,0,0,1-.45-3,2.91,2.91,0,0,1,3.46-2.62C98.41,88.63,99.37,90.08,99.12,92.1Zm-4.78-.88h3.92c-.16-1.41-.86-2.1-2-2.07A1.92,1.92,0,0,0,94.34,91.22Z"/><path class="cls-5" d="M161.56,93.15a2.46,2.46,0,0,1-2.33,2.21,2.74,2.74,0,0,1-3.09-1.66,4.4,4.4,0,0,1-.29-2.66c.41-1.93,1.65-2.9,3.44-2.65,1.63.22,2.58,1.62,2.38,3.66h-4.88c0,1.37.48,2.18,1.47,2.47a1.93,1.93,0,0,0,2.37-1C160.88,93.1,161.12,92.93,161.56,93.15Zm-.85-1.92a1.85,1.85,0,0,0-1.93-2.08,1.88,1.88,0,0,0-1.91,2.08Z"/><path class="cls-6" d="M145.43,90.13c.12-1.15.8-1.71,2.12-1.77,1.49,0,2.34.45,2.51,1.59a48,48,0,0,1,.13,5.07c-.62.36-.84,0-1-.42a3.52,3.52,0,0,1-1.88.79,2.13,2.13,0,0,1-2.26-1.6,2.06,2.06,0,0,1,1.45-2.43,6.08,6.08,0,0,1,1.34-.24c.44,0,.89-.05,1.36-.07.18-.8.09-1.47-.68-1.76a1.7,1.7,0,0,0-2.12.42C146.12,90,146,90.49,145.43,90.13ZM149.18,92a4.52,4.52,0,0,0-2.35.17,1.19,1.19,0,0,0-.87,1.44,1.18,1.18,0,0,0,1.23,1C148.61,94.74,149.42,93.68,149.18,92Z"/><path class="cls-5" d="M118.81,95.05c-.56.31-.73,0-.84-.51a3.37,3.37,0,0,1-2,.85,2.06,2.06,0,0,1-.69-4,6.61,6.61,0,0,1,1.33-.23c.45-.05.9-.05,1.35-.07.22-.83,0-1.49-.69-1.77a1.69,1.69,0,0,0-2.12.45c-.26.36-.44.74-1,.42.14-1.16.81-1.73,2.12-1.79s2.45.46,2.52,1.57C118.89,91.64,118.81,93.36,118.81,95.05ZM118,92a4.64,4.64,0,0,0-2.35.15,1.2,1.2,0,0,0-.92,1.4A1.21,1.21,0,0,0,116,94.6C117.33,94.71,118.1,93.73,118,92Z"/><path class="cls-4" d="M223.39,89.2c.39-.26.62-.43.87-.56a2.26,2.26,0,0,1,3.45,1.81c.08,1.36,0,2.73,0,4.1,0,.28,0,.63-.42.6s-.37-.38-.37-.65c0-1.14,0-2.27,0-3.41s-.55-1.89-1.57-1.94A1.79,1.79,0,0,0,223.42,91c-.06,1.1,0,2.21,0,3.31,0,.32.16.81-.41.83s-.44-.47-.44-.79c0-2.63,0-5.27,0-7.9,0-.33-.07-.8.48-.76s.37.46.37.76C223.4,87.34,223.39,88.2,223.39,89.2Z"/><path class="cls-5" d="M253.81,90.15c.2-1.25.89-1.77,2.33-1.79s2.29.54,2.35,1.67c.09,1.68,0,3.37,0,5-.56.31-.74,0-.86-.5a3.38,3.38,0,0,1-2.07.84,2,2,0,0,1-2.12-1.63,2.07,2.07,0,0,1,1.46-2.43,20.06,20.06,0,0,1,2.71-.33c.15-.78,0-1.44-.74-1.72a1.64,1.64,0,0,0-2.11.47C254.52,90.13,254.32,90.45,253.81,90.15Zm3.77,1.79a4.66,4.66,0,0,0-2.36.19,1.2,1.2,0,0,0-.89,1.35,1.25,1.25,0,0,0,1.19,1.11C257,94.81,257.91,93.61,257.58,91.94Z"/><path class="cls-5" d="M7.8,91.87c0-2,1.12-3.38,2.79-3.5,1.95-.14,3.29,1.16,3.39,3.3s-1.14,3.66-3,3.71S7.8,94,7.8,91.87Zm.93.15a7,7,0,0,0,.1.79,2.15,2.15,0,0,0,2,1.79,2.12,2.12,0,0,0,2-1.65,3.21,3.21,0,0,0-.21-2.64,1.91,1.91,0,0,0-1.87-1.16A2,2,0,0,0,9,90.42,3.61,3.61,0,0,0,8.73,92Z"/><path class="cls-5" d="M185,91.87c0-2,1.12-3.38,2.79-3.5,1.95-.14,3.29,1.17,3.39,3.31s-1.14,3.65-3,3.7S185,94,185,91.87Zm.92.26a6.24,6.24,0,0,0,.19.92,2,2,0,0,0,3.94,0,3.15,3.15,0,0,0-.1-2.65A2,2,0,0,0,188,89.15a2,2,0,0,0-1.87,1.32A3.92,3.92,0,0,0,185.88,92.13Z"/><path class="cls-5" d="M132.42,88.36c1.85,0,3.13,1.39,3.17,3.47a3.2,3.2,0,0,1-3.08,3.55c-1.86,0-3.12-1.36-3.13-3.46S130.57,88.38,132.42,88.36Zm-2.13,3.69a5.87,5.87,0,0,0,.16.89,2.05,2.05,0,0,0,4,0,3.42,3.42,0,0,0-.11-2.46,2,2,0,0,0-1.85-1.34,2,2,0,0,0-1.91,1.24A3.75,3.75,0,0,0,130.29,92.05Z"/><path class="cls-5" d="M30.65,91.86c0-2.1,1.25-3.5,3.11-3.5s3.11,1.43,3.1,3.52-1.28,3.5-3.12,3.51S30.65,94,30.65,91.86Zm.94.29a5.57,5.57,0,0,0,.14.8,2.06,2.06,0,0,0,4,0,3.39,3.39,0,0,0-.17-2.65,1.94,1.94,0,0,0-1.85-1.2,2,2,0,0,0-1.83,1.23A3.47,3.47,0,0,0,31.59,92.15Z"/><path class="cls-5" d="M201.2,89.27c.41-.27.63-.45.88-.59a2.27,2.27,0,0,1,3.48,1.49,27.89,27.89,0,0,1,.09,4.57c0,.26-.1.43-.41.42s-.37-.3-.38-.56c0-1.17,0-2.34,0-3.5s-.52-1.79-1.41-1.94a1.81,1.81,0,0,0-2.09,1.57,22.65,22.65,0,0,0-.14,3.59c0,.31.16.81-.4.82s-.39-.5-.4-.8q0-3.9,0-7.79c0-.31-.17-.82.39-.83s.4.5.41.82C201.22,87.38,201.2,88.22,201.2,89.27Z"/><path class="cls-6" d="M207.85,93.45c.48-.16.72-.11,1,.28a2,2,0,0,0,2.56.7,1.13,1.13,0,0,0,.78-1.11,1,1,0,0,0-.81-1c-.64-.2-1.32-.33-2-.54a1.6,1.6,0,0,1-1.34-1.67,1.75,1.75,0,0,1,1.42-1.64c1.69-.52,3.1.12,3.36,1.59a.61.61,0,0,1-.94-.24,1.73,1.73,0,0,0-2.08-.61.92.92,0,0,0-.82.84.86.86,0,0,0,.73.9c.68.22,1.37.4,2.05.61a1.64,1.64,0,0,1,1.33,1.49A1.9,1.9,0,0,1,212,95c-1.59.89-3.66.33-4.14-1.11A4,4,0,0,1,207.85,93.45Z"/><path class="cls-5" d="M163.68,93.46c.52-.24.72,0,.95.32a2.09,2.09,0,0,0,2.76.55,1.11,1.11,0,0,0,.58-1,1,1,0,0,0-.69-.87c-.64-.21-1.31-.36-2-.55-.88-.26-1.55-.72-1.5-1.76a1.86,1.86,0,0,1,1.74-1.69c1.65-.31,2.8.29,3,1.61-.38.29-.66.21-.93-.2a1.73,1.73,0,0,0-2-.62,1,1,0,0,0-.88.9c0,.52.33.75.75.88.62.2,1.25.35,1.87.53a1.73,1.73,0,0,1,1.5,1.67,1.92,1.92,0,0,1-1.35,1.94,3.42,3.42,0,0,1-2.75,0A1.57,1.57,0,0,1,163.68,93.46Z"/><path class="cls-5" d="M23.62,93.46c.5-.25.72,0,1,.35a2.09,2.09,0,0,0,2.76.5,1,1,0,0,0-.16-1.91c-.66-.26-1.37-.37-2.05-.59a1.61,1.61,0,0,1-1.35-1.66,1.66,1.66,0,0,1,1.48-1.67,2.82,2.82,0,0,1,3,.65c.23.27.48.65.16,1s-.63,0-.83-.31a1.32,1.32,0,0,0-1.16-.61c-.69,0-1.48,0-1.67.8s.61,1,1.23,1.18,1.13.29,1.67.5a1.73,1.73,0,0,1,.75,2.84,3.3,3.3,0,0,1-4.26.25A1.45,1.45,0,0,1,23.62,93.46Z"/><path class="cls-7" d="M17.15,89.16a2.68,2.68,0,0,1,1.93-.8,2.07,2.07,0,0,1,2.19,1.8,27.8,27.8,0,0,1,.13,4.47c0,.27,0,.53-.41.54s-.45-.3-.45-.6c0-1.17,0-2.34,0-3.5s-.57-1.88-1.59-1.92A1.78,1.78,0,0,0,17,90.94c-.09,1.13,0,2.27-.06,3.4,0,.32.15.8-.41.82s-.44-.47-.45-.79c0-1.65,0-3.31,0-5,0-.3-.18-.67.28-.82S16.91,88.9,17.15,89.16Z"/><path class="cls-5" d="M267,91c1.53-.64,2.22-2.3,4-2.22l-3.07,2.68,3.45,3.61a1.17,1.17,0,0,1-1.47-.37c-.91-.88-1.85-1.72-2.79-2.58a9.88,9.88,0,0,0-.11,2.27c0,.32.13.81-.45.78s-.37-.46-.38-.76q0-3.94,0-7.89c0-.33-.12-.81.45-.78s.38.46.38.76C267,87.93,267,89.39,267,91Z"/><path class="cls-6" d="M80.85,88.69c.57-.29.79,0,1,.38a3.84,3.84,0,0,1,1.71-.71,2.12,2.12,0,0,1,2.46,2c.09,1.39,0,2.79,0,4.19,0,.25,0,.54-.37.56s-.42-.33-.42-.61c0-1.14,0-2.27,0-3.41,0-1.3-.58-2-1.64-2s-1.8.65-1.89,1.91,0,2.27-.06,3.4c0,.31,0,.71-.45.7s-.41-.34-.41-.63c0-1.78,0-3.57,0-5.35C80.82,89,80.84,88.86,80.85,88.69Z"/><path class="cls-6" d="M289.44,88.69c.54-.29.81,0,.94.48.28-.19.49-.35.71-.48a2.27,2.27,0,0,1,3.54,1.85c.08,1.32,0,2.66,0,4,0,.28,0,.63-.41.62s-.38-.36-.38-.63c0-1.17,0-2.34,0-3.51s-.56-1.8-1.55-1.86a1.76,1.76,0,0,0-1.94,1.74c-.08,1.17,0,2.34-.05,3.51,0,.33.11.79-.47.76s-.38-.46-.38-.75C289.43,92.49,289.44,90.58,289.44,88.69Z"/><path class="cls-6" d="M235.63,95.06c-.56.32-.78,0-1-.49-.24.17-.44.34-.65.47a2.27,2.27,0,0,1-3.56-1.82c-.08-1.33,0-2.66,0-4,0-.28,0-.63.4-.64s.39.35.4.63c0,1.17,0,2.34,0,3.51s.56,1.8,1.55,1.87a1.77,1.77,0,0,0,1.94-1.75c.08-1.13,0-2.27.05-3.41,0-.31-.17-.8.38-.84s.47.5.47.85C235.64,91.32,235.63,93.2,235.63,95.06Z"/><path class="cls-6" d="M52.35,88.68c.68-.25.86,0,.85.57,0,1.14,0,2.28,0,3.41s.5,1.84,1.47,1.94a1.82,1.82,0,0,0,2-1.61,20.23,20.23,0,0,0,.1-3.21c0-.23,0-.45,0-.68s0-.53.43-.51.36.23.36.47v6c-.59.34-.76,0-.89-.4-.26,0-.35.16-.51.27a2.3,2.3,0,0,1-3.8-1.7C52.25,91.72,52.35,90.22,52.35,88.68Z"/><path class="cls-6" d="M106.43,88.69c.63-.31.78.1,1,.47.25-.18.48-.36.73-.51a2.26,2.26,0,0,1,3.47,1.86c.08,1.33,0,2.66,0,4,0,.27.06.64-.38.64s-.41-.41-.41-.71c0-1.13,0-2.27,0-3.41s-.55-1.81-1.53-1.88a1.77,1.77,0,0,0-2,1.73c-.09,1.13,0,2.27-.06,3.4,0,.34.19.89-.45.87s-.4-.51-.4-.83C106.42,92.44,106.43,90.56,106.43,88.69Z"/><path class="cls-6" d="M137.74,88.66c.55-.27.76.08.9.52a4.3,4.3,0,0,1,1.32-.75,2.18,2.18,0,0,1,2.91,1.9A33.75,33.75,0,0,1,143,94.6c0,.31-.06.6-.48.56s-.37-.31-.37-.57c0-1.16,0-2.33,0-3.5s-.52-1.89-1.55-1.94A1.81,1.81,0,0,0,138.58,91c-.07,1.07,0,2.14-.05,3.21,0,.33.25.9-.36.93s-.42-.55-.42-.88C137.72,92.41,137.74,90.57,137.74,88.66Z"/><path class="cls-6" d="M193.75,91.66a3.89,3.89,0,0,0,.36,1.84,1.72,1.72,0,0,0,1.49,1.1,1.7,1.7,0,0,0,1.68-.95c.17-.33.33-.74.77-.5s.13.65,0,.95c-.75,1.65-3.34,1.77-4.5.21a4.37,4.37,0,0,1,0-4.86,2.72,2.72,0,0,1,2.76-1,2.18,2.18,0,0,1,1.84,1.41c.09.26.24.59-.17.74a.45.45,0,0,1-.62-.31,1.59,1.59,0,0,0-1.94-1.07,1.9,1.9,0,0,0-1.53,1.58A5.44,5.44,0,0,0,193.75,91.66Z"/><path class="cls-6" d="M220.38,93.2a2.17,2.17,0,0,1-1.72,2.11,2.83,2.83,0,0,1-3-1,4.52,4.52,0,0,1,.09-4.86,2.85,2.85,0,0,1,3-1,2.06,2.06,0,0,1,1.66,2c-.39.19-.69.24-.88-.3a1.56,1.56,0,0,0-1.71-1,1.75,1.75,0,0,0-1.57,1.13,3.67,3.67,0,0,0,0,3.2,1.71,1.71,0,0,0,1.58,1.12,1.63,1.63,0,0,0,1.63-1C219.62,93.14,219.85,93,220.38,93.2Z"/><path class="cls-7" d="M281.59,88.26c.22-.27-.38-1.25.67-1.3.25.17.21.42.19.63-.05.67.16,1.06.92,1,.27,0,.54,0,.52.41s-.33.37-.58.35c-.72-.07-.87.32-.85.94,0,.94,0,1.88,0,2.82,0,1.34.07,1.41,1.41,1.59.2.43,0,.62-.42.7a1.44,1.44,0,0,1-1.85-1.54c0-1.45,0-2.9,0-4.16-.4-.59-1.28,0-1.24-.76S281.15,88.77,281.59,88.26Z"/><path class="cls-7" d="M121.91,88.36c.26-.42-.26-1.36.77-1.4a.69.69,0,0,1,.18.65c0,.61.1,1,.84,1,.24,0,.55,0,.57.34s-.32.44-.6.42c-.68,0-.82.31-.81.89q0,1.61,0,3.21c0,.72.21,1.21,1,1.18.25,0,.47,0,.46.36s-.22.35-.46.4A1.45,1.45,0,0,1,122,93.9c0-1.48,0-3,0-4.27-.45-.49-1.22,0-1.24-.66S121.5,88.75,121.91,88.36Z"/><path class="cls-7" d="M89.09,88.47c.36-.53-.16-1.49.9-1.52.29.47,0,1,.23,1.41s1.33-.21,1.33.59-.89.15-1.39.65c0,1.32,0,2.81,0,4.28,0,.89.91.62,1.43.81.2.53-.1.66-.51.69-.66,0-1.32,0-1.66-.71a2.9,2.9,0,0,1-.18-1.24c0-1.11,0-2.21,0-3.31,0-.35,0-.73-.51-.78-.28,0-.73.1-.7-.41s.47-.31.75-.39Z"/><path class="cls-1" d="M44.49,89.65c-.51-.52-1.27,0-1.29-.69s.78-.15.9-.32C44.77,88.09,44,87,45.25,87l.13,1.39c.26.28.57.18.86.21s.54,0,.53.4-.3.36-.56.38l-.86.08c0,1.52,0,3,0,4.49,0,.56.5.7,1,.7.24,0,.47,0,.46.36s-.23.35-.46.4A1.41,1.41,0,0,1,44.5,94C44.46,92.47,44.49,91,44.49,89.65Z"/><path class="cls-8" d="M77.9,90.47c0,1.33,0,2.67,0,4,0,.31.06.69-.45.7S77,94.82,77,94.5V86.3c0-.33,0-.68.5-.65s.42.42.42.72C77.91,87.74,77.9,89.11,77.9,90.47Z"/><path class="cls-9" d="M153.55,90.53c0,1.27,0,2.54,0,3.8,0,.32.15.8-.41.83s-.46-.44-.46-.77c0-2.63,0-5.27,0-7.9,0-.33-.08-.81.46-.79s.41.51.41.83C153.56,87.86,153.55,89.2,153.55,90.53Z"/><path class="cls-8" d="M238.25,95.06V86.27c0-.31,0-.61.45-.58s.44.42.44.73c0,2.14,0,4.29,0,6.43,0,.58,0,1.17,0,1.75S238.86,95.28,238.25,95.06Z"/><path class="cls-10" d="M101.51,88.69c.5-.22.78-.09.91.36.55-.36,1-.78,1.63-.69.26,0,.54,0,.54.4s-.21.33-.45.39c-1.38.31-1.72.71-1.75,2.11,0,1.1,0,2.2,0,3.3,0,.3,0,.62-.45.61s-.41-.34-.41-.63C101.5,92.6,101.51,90.66,101.51,88.69Z"/><path class="cls-10" d="M261.11,88.69c.53-.28.77,0,.88.49a2,2,0,0,1,1.79-.81c.2,0,.38.07.4.32s-.12.38-.38.45c-1.58.43-1.81.74-1.82,2.35,0,1,0,2.08,0,3.12,0,.26,0,.54-.39.56s-.46-.19-.46-.49Z"/><path class="cls-5" d="M39,88.68c.45-.3.7,0,.95.37a2,2,0,0,1,1.65-.68c.24,0,.46,0,.48.36s-.17.35-.42.41c-1.52.37-1.84.78-1.85,2.33,0,1,0,2.07,0,3.1,0,.25,0,.55-.34.59s-.46-.28-.46-.58Z"/><path class="cls-9" d="M48.82,91.88c0-.91,0-1.82,0-2.73,0-.32.06-.6.48-.57s.39.3.39.56V94.6c0,.31-.06.6-.49.57s-.38-.3-.38-.56C48.82,93.7,48.82,92.79,48.82,91.88Z"/><path class="cls-8" d="M127.16,95.08c-.54.2-.82.06-.83-.48V89.15c0-.54.29-.67.83-.49Z"/><path class="cls-8" d="M286.79,88.68v6.39c-.52.18-.86.14-.86-.48,0-1.81,0-3.63,0-5.44C285.93,88.61,286.22,88.47,286.79,88.68Z"/><path class="cls-11" d="M49.77,86.14c0,.38-.12.58-.49.57s-.48-.12-.48-.45,0-.58.44-.59S49.79,85.79,49.77,86.14Z"/><path class="cls-12" d="M127.25,86.15c0,.28,0,.53-.38.56s-.57-.1-.59-.48.11-.57.5-.56A.42.42,0,0,1,127.25,86.15Z"/><path class="cls-12" d="M286.42,86.71c-.36,0-.54-.15-.54-.52s.1-.5.44-.52.53.15.53.52S286.76,86.7,286.42,86.71Z"/></g></g></svg>