<svg xmlns="http://www.w3.org/2000/svg" viewBox="0 0 464.56 122.11" width="380"><defs><style>.cls-1{fill:#ddd;}.cls-2{fill:#363636;}.cls-3{fill:#949494;}.cls-4{fill:#1c1c1c;}.cls-5{fill:#4d4d4d;}.cls-6{fill:#050505;}.cls-7{fill:#040404;}.cls-8{fill:#060606;}.cls-9{fill:#9a9a9a;}.cls-10{fill:#070707;}.cls-11{fill:#b8b8b8;}.cls-12{fill:#7f7f7f;}.cls-13{fill:#bcbcbc;}.cls-14{fill:#6a6a6a;}.cls-15{fill:#5a5a5a;}.cls-16{fill:#cacaca;}.cls-17{fill:#dbdbdb;}.cls-18{fill:#838383;}.cls-19{fill:#ebebeb;}.cls-20{fill:#a3a3a3;}.cls-21{fill:#b2b2b2;}</style></defs><title>Element 7</title><g id="Ebene_2" data-name="Ebene 2"><g id="Ebene_1-2" data-name="Ebene 1"><path class="cls-1" d="M227.9.21a1.48,1.48,0,0,1,0-.21h4.8q0,12.56,0,25.12a17.3,17.3,0,0,1-.24,2l-.72,0q0-5.58,0-11.15,0-7.14,0-14.28c0-.68.08-1.44-1-1.42h-1.2l-1.45,0Z"/><path class="cls-2" d="M176.1,86.17c-.63-.81-1.23-1.63-1.89-2.4A4.86,4.86,0,0,1,173,80.38c.06-7.54.14-15.09,0-22.63a7.24,7.24,0,0,1,2.43-5.92c.88-.81.93-1.28,0-2.11a17.09,17.09,0,0,1-2-2.62,6.27,6.27,0,0,1,.42-1.1,24.4,24.4,0,0,1,6.39-6.85,46.2,46.2,0,0,1,9.57-5.08,3.36,3.36,0,0,0,1.11-.11c3.34-1.6,6.7-1.58,10.33-.84A125.82,125.82,0,0,0,224,35.32c1.32,0,2.64.1,4,.07.75,0,1.06.2,1.05,1q0,12.48,0,25c0,1-.39,1.09-1.21,1.11A115.38,115.38,0,0,0,198.13,67c-.41.11-.81.24-1.21.37v.34c2.4.4,4.8,1,7.23,1.19,6.28.61,12.57,1.07,18.86,1.59a3.71,3.71,0,0,1,.58.11c-1.82.17-3.64.32-5.46.53a107.21,107.21,0,0,0-25.08,5.64C186.93,79,181,81.73,176.1,86.17Zm14.25-30.85c0,.84,0,1.68,0,2.52,0,.62.19.74.79.54,1.55-.54,3.13-1,4.68-1.51.84-.3,1,0,1,.78,0,1.24,0,2.49,0,3.72-.06,1,.29,1.05,1.11.8,1.45-.44,2.91-.85,4.4-1.15.78-.16.94-.54.92-1.23,0-1.32,0-2.64,0-4,0-.69.21-1,.9-1.13,1.54-.26,3-.66,4.59-.87.86-.12,1-.5,1-1.26,0-1.4-.09-2.8,0-4.2.08-1.14-.4-1.24-1.32-1-1.36.32-2.75.54-4.11.84-.74.16-1.13.05-1.09-.84.06-1.28,0-2.56,0-3.84,0-.65-.21-.85-.85-.69-.89.23-1.8.35-2.69.59-2.87.8-2.87.81-2.87,3.79s0,2.85-2.66,3.68l-.68.22C190.34,52.07,190.34,52.07,190.35,55.32Z"/><path class="cls-3" d="M228.84,88.78c0,2.64,0,5.27.06,7.91,0,.8-.37,1-1.1,1a95.77,95.77,0,0,0-32.62,7.06,60.69,60.69,0,0,0-20.09,12.56,9.92,9.92,0,0,1-.21-1.52c0-2.59,0-5.18,0-7.77a9.69,9.69,0,0,0-.24-1.51l.51-.67c3.19-2.25,6.19-4.87,9.61-6.68C198.5,91.91,213.37,89,228.84,88.78Z"/><path class="cls-2" d="M228.84,88.78c-15.47.22-30.34,3.13-44.11,10.41-3.42,1.81-6.42,4.43-9.61,6.68a9.71,9.71,0,0,1-.25-1.51c0-2.22,0-4.45,0-6.68a1.92,1.92,0,0,0-.32-.84c-1.15.35-.83-.54-.84-1,0-2.43,0-4.85,0-7.28v0l.26-.28.71-.7c0,2.48,0,5,0,7.44a4,4,0,0,0,.27,1c.26-.15.53-.29.79-.46,3-2.06,5.92-4.38,9.13-6.12a72.09,72.09,0,0,1,21-7.22c5.13-1,10.32-1.6,15.51-2.26,2.48-.31,5-.34,7.51-.49Z"/><path class="cls-4" d="M228.86,79.44c-2.51.15-5,.18-7.51.49-5.19.66-10.38,1.28-15.51,2.26a72.09,72.09,0,0,0-21,7.22c-3.21,1.74-6.1,4.06-9.13,6.12-.26.17-.53.31-.79.46a4,4,0,0,1-.27-1c0-2.48,0-5,0-7.44v0l.26-.28,1.25-1.14c4.93-4.44,10.83-7.19,17-9.45a107.21,107.21,0,0,1,25.08-5.64c1.82-.21,3.64-.36,5.46-.53,1.52,0,3,0,4.54,0a1,1,0,0,1,.73.72C228.91,74,228.87,76.73,228.86,79.44Z"/><path class="cls-5" d="M189.78,34.07a46.2,46.2,0,0,0-9.57,5.08A24.4,24.4,0,0,0,173.82,46a6.27,6.27,0,0,0-.42,1.1,4.09,4.09,0,0,1-.47-1.25q0-12.78,0-25.55a3.8,3.8,0,0,1,.63-1.87c2.9-4.57,7.08-7.63,11.86-10,1-.51,2.1-1,3.17-1.4s1.25-.43,1.25.89c0,5,0,10,0,15C189.84,26.64,189.8,30.35,189.78,34.07Z"/><path class="cls-2" d="M225,27.34c-4.85.42-9.7.83-14.54,1.27-.65.06-.82-.09-.82-.73q0-12.69,0-25.39c0-.83.46-.93,1-1,4.45-.37,8.91-.71,13.36-1.07l.94.09c0,.39.06.79.06,1.19Q225,14.54,225,27.34Z"/><path class="cls-6" d="M327.39,41.45h-4.68c1.73-.32,1.43-1.66,1.43-2.82,0-2.27,0-4.55-.19-6.9l-4.54,10c-1.54-3.31-3-6.38-4.39-9.44h-.27v1.55c0,1.6,0,3.2,0,4.8,0,1.16-.08,2.39,1.5,2.77H312.4c2-.57,1.51-2.26,1.54-3.68,0-1.84,0-3.68,0-5.51,0-1.12.17-2.34-1.72-2.35l.25-.33a25.45,25.45,0,0,1,2.9,0c.31,0,.65.52.82.87,1.08,2.27,2.11,4.56,3.17,6.84.16.35.35.69.6,1.18,1.21-2.68,2.39-5.21,3.47-7.78a1.6,1.6,0,0,1,1.87-1.18c.69.08,1.39,0,2.19.16-1.69.31-1.55,1.53-1.55,2.67v6.84C325.94,40.24,326.09,41.16,327.39,41.45Z"/><path class="cls-7" d="M15.08,46.85C13.5,47,13.54,48,13.54,49.1c0,2.36,0,4.71,0,7.07,0,1.56,0,1.56,1.7,2.22H10.36C12,58,11.7,56.74,11.7,55.59a56.29,56.29,0,0,0-.25-6.71L7,58.74,2.54,49.16l-.18.06c0,2.49-.08,5,.06,7.48,0,.6.79,1.16,1.19,1.7H0c1.67-.44,1.52-1.78,1.52-3V49.13c0-1.78,0-1.78-1.55-2.54,1.07,0,2.14-.05,3.2,0,.21,0,.43.51.58.82,1.21,2.6,2.41,5.21,3.71,8,.24-.47.42-.78.57-1.11,1-2.29,2.1-4.57,3.08-6.88a1.23,1.23,0,0,1,1.42-.92c.78.06,1.57,0,2.36,0Z"/><path class="cls-6" d="M127.34,63.67H132c-1.7.36-1.43,1.68-1.44,2.84,0,2.12,0,4.23,0,6.35,0,1.11-.16,2.32,1.44,2.61h-4.67c1.23-.29,1.5-1.14,1.44-2.27s0-2-.06-3c0-.13-.38-.34-.6-.34-1.35,0-2.72-.06-4.07,0a1.08,1.08,0,0,0-.73.72c-.09.87,0,1.75,0,2.63,0,1,0,2,1.4,2.21h-4.65c1.72-.27,1.41-1.6,1.41-2.75q0-3.29,0-6.59c0-1.68,0-1.68-1.73-2.38h5c-1.75.29-1.39,1.64-1.41,2.8a8.91,8.91,0,0,0,0,1.79c.06.29.46.73.72.74,1.31.08,2.64,0,3.95,0,.68,0,.81-.28.78-.86s0-1.36,0-2C128.8,65.08,128.9,63.92,127.34,63.67Z"/><path class="cls-6" d="M287.75,75.46h-4.66c1.44-.33,1.44-1.39,1.43-2.52,0-2.28,0-4.56,0-6.83,0-1.14-.09-2.08-1.44-2.41h4.7c-1.84.39-1.42,1.83-1.43,3,0,2.34,0,2.34,2.33,2.34,3.14,0,3.11,0,3.12-3.09,0-1.11-.12-2-1.46-2.28H295c-1.66.26-1.38,1.53-1.38,2.62,0,2.2,0,4.4,0,6.6,0,1.07-.22,2.26,1.37,2.53h-4.59c1.57-.28,1.37-1.47,1.38-2.53,0-3.09,0-3.09-3.09-3.09-2.35,0-2.35,0-2.35,2.41a7.63,7.63,0,0,1,0,.83C286.25,74.21,286.42,75.16,287.75,75.46Z"/><path class="cls-7" d="M106.65,58.39c-1.76.4-3.14.17-4.15-1.47a26.93,26.93,0,0,0-2.7-3.35,3.27,3.27,0,0,0-1-.55,4.66,4.66,0,0,0-.27.93c0,.76,0,1.53,0,2.28-.08,1.1.13,1.94,1.45,2.16H95.33c1.67-.33,1.33-1.65,1.34-2.79,0-2.2,0-4.4,0-6.59,0-1.09-.06-2-1.5-2.15l.09-.3c.47,0,1,0,1.42,0,1.75.07,3.52,0,5.25.24a2.8,2.8,0,0,1,2.74,2.81c.07,1.47-.59,2.38-2.32,2.9-.79.24-.76.46-.3,1,1,1.22,2,2.5,3,3.7A9,9,0,0,0,106.65,58.39Zm-8.1-8.56a10.69,10.69,0,0,0,0,1.79c0,.25.41.67.61.66a7.81,7.81,0,0,0,2.2-.43,2.31,2.31,0,0,0,1.22-3,2.85,2.85,0,0,0-3.38-1.56c-1.33.26-.42,1.38-.68,2.06A1.48,1.48,0,0,0,98.55,49.83Z"/><path class="cls-6" d="M241.24,41.4c1.34-.24,1.44-1.19,1.43-2.26,0-2.36,0-4.72,0-7.07,0-1.14-.11-2.07-1.52-2.34,2.64-.09,5.24-.55,7.76.39a2.81,2.81,0,0,1-.08,5.25c-.4.16-.82.3-1.4.5l4.74,5.55a2.73,2.73,0,0,1-3.3-1c-1-1.27-2-2.56-3.1-3.81a3.41,3.41,0,0,0-.95-.56,4.78,4.78,0,0,0-.31,1c-.05.67,0,1.36,0,2-.07,1.16.07,2.13,1.54,2.33Zm3.27-8.51h0c0,.6,0,1.2,0,1.79,0,.2.21.58.27.57a8.27,8.27,0,0,0,3-.65,2.83,2.83,0,0,0,.92-2.14c0-1.5-1.35-2.33-3.25-2.18-1.62.13-.65,1.4-.91,2.13A1.54,1.54,0,0,0,244.51,32.89Z"/><path class="cls-6" d="M409.21,69.85c1.82,1.87,2.86,4.2,5,5.49a2.79,2.79,0,0,1-3.62-1c-1-1.27-2.05-2.56-3.11-3.8a2.94,2.94,0,0,0-1-.51,4.62,4.62,0,0,0-.26,1c0,.6,0,1.2,0,1.8,0,1.84,0,1.84,1.7,2.64h-5c1.75-.36,1.4-1.72,1.41-2.9,0-2.16,0-4.32,0-6.47,0-1.13-.07-2.1-1.53-2.34,2.61,0,5.17-.55,7.66.33a2.83,2.83,0,0,1-.09,5.35Zm-2.94-3a13.2,13.2,0,0,0,0,1.78c0,.25.39.67.54.65a9.61,9.61,0,0,0,2.63-.61,2.29,2.29,0,0,0,.84-2.94A2.93,2.93,0,0,0,407,64.34c-1.23.25-.49,1.29-.68,2A2.41,2.41,0,0,0,406.27,66.89Z"/><path class="cls-6" d="M73.55,75.21c2,.08,1.83-1.21,1.83-2.36q0-3.36,0-6.71c0-1.13.06-2.3-1.6-2.42a3.3,3.3,0,0,1,.69-.11c2.11.06,4.23.06,6.33.26a2.6,2.6,0,0,1,2.52,2.2c.29,1.46-.22,2.32-2,3.18.37.2.69.38,1,.54A2.58,2.58,0,0,1,84,72.47a2.77,2.77,0,0,1-1.91,2.63,5.76,5.76,0,0,1-1.86.41c-2.13,0-4.25,0-6.38,0Zm4.82-.3c.62,0,.91,0,1.18-.07,1.6-.24,2.37-1.06,2.39-2.49s-.68-2.19-2.23-2.51c-.47-.1-.95-.13-1.42-.2-.78-.11-1.2.09-1.12,1a17,17,0,0,1,0,2.76C77.09,74.56,77.56,75.05,78.37,74.91ZM77.19,66.7c0,2.41,0,2.41,2.19,2.21a2,2,0,0,0,2.16-2.31c-.08-1.61-1.23-2.4-3.39-2.32-1.67.06-.7,1.35-1,2.06A1.09,1.09,0,0,0,77.19,66.7Z"/><path class="cls-7" d="M361.93,75.46c1.36-.36,1.37-1.36,1.35-2.45,0-2.19,0-4.39,0-6.59,0-1.85,0-1.85-1.34-2.64,2.11,0,4.29-.15,6.44,0,1.93.17,2.8,1.23,2.86,2.79s-.57,2.41-2.59,3l-.55.23c1.74,1.84,2.83,4.13,5,5.47a2.8,2.8,0,0,1-3.52-.85c-1.05-1.3-2.09-2.63-3.17-3.9a3.1,3.1,0,0,0-1-.52,5.62,5.62,0,0,0-.24,1c0,.64,0,1.28,0,1.92,0,1.08-.23,2.26,1.37,2.5Zm3.22-8.61h0a17.53,17.53,0,0,0,0,1.92c0,.21.35.57.5.55a9.85,9.85,0,0,0,2.54-.56,2.31,2.31,0,0,0,1-2.91,3,3,0,0,0-3.44-1.5c-1.14.32-.39,1.35-.59,2A1.85,1.85,0,0,0,365.15,66.85Z"/><path class="cls-7" d="M282.47,75.49c-1.56.15-3,.32-4-1.32a29.06,29.06,0,0,0-2.85-3.54,3.24,3.24,0,0,0-1-.56,4.57,4.57,0,0,0-.27.94c0,.72,0,1.44,0,2.15-.1,1.12.11,2,1.39,2.29h-4.59c1.56-.28,1.33-1.46,1.33-2.52,0-2.24,0-4.47,0-6.71,0-1.09.22-2.29-1.71-2.26l.32-.49c2.39.15,4.79.17,7.15.51a2.84,2.84,0,0,1,.09,5.51c-1.11.3-.88.63-.32,1.27.92,1.06,1.74,2.2,2.66,3.25A16.77,16.77,0,0,0,282.47,75.49Zm-8-8.66c0,.64,0,1.28,0,1.91,0,.22.35.6.48.58a10.13,10.13,0,0,0,2.65-.61,2.3,2.3,0,0,0,.83-2.95A2.92,2.92,0,0,0,275,64.35c-1.17.29-.4,1.33-.61,2A1.93,1.93,0,0,0,274.43,66.83Z"/><path class="cls-7" d="M55.71,41.39c-1.88.47-3.23.07-4.25-1.57a28,28,0,0,0-2.71-3.35c-.2-.23-.59-.29-.89-.43a3.72,3.72,0,0,0-.22.84c0,.68,0,1.36,0,2,0,1.06-.3,2.3,1.37,2.51H44.41c1.54-.31,1.34-1.48,1.34-2.55,0-2.32,0-4.63,0-7,0-1.08-.13-1.92-1.5-2l.12-.31c1.7,0,3.41,0,5.12,0a7.67,7.67,0,0,1,2.11.37,2.85,2.85,0,0,1,0,5.51c-.3.11-.61.2-1.1.35C52.33,37.68,53.38,40,55.71,41.39ZM48.42,30.27c-.12.12-.7.44-.74.82a28.49,28.49,0,0,0,0,3.58c0,.2.1.51.25.59,1.17.66,3.66-.69,3.86-2.08C52,31.39,51,30.32,48.42,30.27Z"/><path class="cls-6" d="M349.73,29.42c2.38.16,4.79.19,7.15.54a2.59,2.59,0,0,1,2.28,2.8c0,1.38-.69,2.23-2.22,2.76-.26.09-.53.16-1,.31l4.76,5.6c-1.48.43-2.29.21-3.4-1.17s-2-2.5-3-3.71a3.11,3.11,0,0,0-1-.53A4.9,4.9,0,0,0,353,37c0,.64,0,1.28,0,1.92,0,1.15-.17,2.37,1.54,2.54h-5.26c2.52-.52,1.83-2.19,1.87-3.52.06-1.88,0-3.76,0-5.63,0-1.15.1-2.29-1.66-2.4ZM353,32.81a13.35,13.35,0,0,0,0,1.79c0,.26.38.7.53.67a9.72,9.72,0,0,0,2.65-.58,2.31,2.31,0,0,0,.82-3,3,3,0,0,0-3.38-1.43c-1.19.32-.44,1.35-.64,2A1.93,1.93,0,0,0,353,32.81Z"/><path class="cls-6" d="M101.24,75.47H96.29c1.76-.35,1.4-1.73,1.41-2.9,0-2.16,0-4.32,0-6.48,0-1.12-.07-2.09-1.53-2.34,2.61,0,5.17-.55,7.66.34a2.66,2.66,0,0,1,1.87,2.77,2.63,2.63,0,0,1-2,2.57l-1.25.42c1.74,1.88,2.86,4.15,5,5.5a2.79,2.79,0,0,1-3.61-1c-1-1.27-2-2.57-3.12-3.81-.22-.26-.64-.34-1-.5a4.71,4.71,0,0,0-.26,1c0,.55,0,1.11,0,1.67C99.55,74.66,99.55,74.66,101.24,75.47Zm-1.69-8.59c0,.55,0,1.11,0,1.67s.17.92.81.8a12.26,12.26,0,0,0,2.08-.46A2.27,2.27,0,0,0,103.66,66a2.79,2.79,0,0,0-3.42-1.67c-1.32.26-.44,1.38-.69,2.06A1.54,1.54,0,0,0,99.55,66.88Z"/><path class="cls-6" d="M252,46.46c2.3.11,4.61.06,6.88.39a2.79,2.79,0,0,1,2.21,4.2,10.8,10.8,0,0,1-2.61,2c1.49,1.6,2.6,3.87,4.74,5.22a2.76,2.76,0,0,1-3.51-.85c-1.06-1.3-2.09-2.62-3.19-3.9a3.1,3.1,0,0,0-1-.52,4.24,4.24,0,0,0-.27.95c0,.6,0,1.2,0,1.8,0,1.86,0,1.86,1.72,2.65h-5c1.77-.4,1.41-1.8,1.41-3,0-2.12,0-4.24,0-6.35,0-1.12,0-2.11-1.59-2.2Zm3.27,3.4v.6c0,2.12,0,2.12,2.12,1.65l.35-.07a2.38,2.38,0,0,0,1.59-3.21A2.87,2.87,0,0,0,256,47.3c-1.22.26-.48,1.3-.67,2A2.33,2.33,0,0,0,255.31,49.86Z"/><path class="cls-7" d="M114.27,69.86,119,75.43a2.58,2.58,0,0,1-3.08-.76c-1.07-1.3-2.1-2.62-3.19-3.9a4.75,4.75,0,0,0-1-.71,6,6,0,0,0-.35,1.14,17.81,17.81,0,0,0,0,1.79c0,1.71,0,1.71,1.65,2.47h-4.91c1.49-.31,1.43-1.41,1.42-2.52,0-2.24,0-4.48,0-6.71,0-1.75,0-1.75-1.43-2.44l0-.34c2.42.18,4.86.21,7.25.58a2.51,2.51,0,0,1,2.13,2.78,2.69,2.69,0,0,1-2.11,2.71C115.11,69.62,114.81,69.7,114.27,69.86Zm-2.88-3c0,.56,0,1.12,0,1.68-.06.73.28.93.93.79a11,11,0,0,0,2.07-.5A2.34,2.34,0,0,0,115.47,66a2.79,2.79,0,0,0-3.36-1.61c-1.36.23-.46,1.36-.72,2A1.48,1.48,0,0,0,111.39,66.86Z"/><path class="cls-7" d="M37.33,46.46c2.29.12,4.58.11,6.84.38a2.7,2.7,0,0,1,2.54,2.73c.06,1.58-.61,2.42-2.37,3l-.83.26c1.79,1.86,2.88,4.14,5,5.49a2.73,2.73,0,0,1-3.53-.9c-1.07-1.3-2.11-2.61-3.19-3.89a2.94,2.94,0,0,0-.87-.49,3.53,3.53,0,0,0-.32.91c0,.76,0,1.52,0,2.28-.07,1.09.14,1.94,1.45,2.17H37.36c1.72-.34,1.38-1.7,1.38-2.88,0-2,0-4.08,0-6.12,0-1.13.3-2.44-1.67-2.53Zm3.25,3.42c0,2.74.11,2.83,2.4,2.18a2.46,2.46,0,0,0,1.48-3.64,3.26,3.26,0,0,0-3.33-1.11c-1,.32-.38,1.23-.54,1.85A3.46,3.46,0,0,0,40.58,49.88Z"/><path class="cls-6" d="M241.47,63.41a66.46,66.46,0,0,1,7.74.72c2.72.55,4.13,2.74,4.09,5.45s-1.59,5.06-4.21,5.54a44.06,44.06,0,0,1-7.63.43c1.33-.9,1.33-.9,1.33-2.64V65.85c0-1.47,0-1.47-1.35-2Zm3.2,6.18c0,1.44,0,2.88,0,4.32a1.21,1.21,0,0,0,.62.92,5.22,5.22,0,0,0,5.17-2.08,6,6,0,0,0,.06-6.07c-1-1.89-2.87-2.39-4.9-2.4-.71,0-1,.26-1,1C244.69,66.71,244.67,68.15,244.67,69.59Z"/><path class="cls-8" d="M451.33,38.09c0-2.38.09-4.53-.06-6.67,0-.63-.81-1.21-1.2-1.76h3.59c-1.69.43-1.47,1.78-1.47,3,0,3,0,6,0,9l-.3.16Q448,37,444.14,32.2l-.27,0v2.06c0,1.56,0,3.12,0,4.68,0,1.12.16,2.1,1.52,2.44H441.5c1.74-.37,1.56-1.73,1.56-3q0-3.06,0-6.12c0-1.71-.09-1.85-1.58-2.51a3,3,0,0,1,3.88,1l4.9,6.06C450.55,37.22,450.87,37.56,451.33,38.09Z"/><path class="cls-8" d="M304,66c0,2.87-.07,5.44.06,8,0,.51.8,1,1.23,1.47h-3.75c1.71-.37,1.57-1.69,1.57-2.92,0-2-.05-4.08,0-6.11,0-1.29-.17-2.3-1.78-2.58,2.19-.62,3-.37,4.22,1.17q2.72,3.36,5.44,6.7a2.43,2.43,0,0,0,.29.22c0-2.36.07-4.64-.06-6.92,0-.46-.83-.88-1.25-1.3h3.77c-1.73.35-1.52,1.7-1.52,2.92v9.07l-.3.09Z"/><path class="cls-8" d="M272.11,48.94c0,2.87-.07,5.44.05,8,0,.51.81,1,1.23,1.47h-3.73c1.71-.37,1.56-1.68,1.56-2.92q0-3,0-6.11c0-1.85,0-1.9-1.59-2.63,1.94-.58,2.81-.31,4,1.22l5.73,7.07c0-2.5.08-4.79-.06-7.06,0-.47-.82-.89-1.24-1.31h3.76c-1.76.4-1.52,1.79-1.52,3,0,2.55,0,5.11,0,7.67v1.27l-.3.1Z"/><path class="cls-7" d="M72.87,69.55c0,3.67-2.48,6.28-5.93,6.25s-5.84-2.65-5.83-6.26A5.85,5.85,0,0,1,67,63.36C70.42,63.35,72.87,65.94,72.87,69.55ZM71,69.82a25.49,25.49,0,0,0-.65-3.35A3.47,3.47,0,0,0,67,64a3.34,3.34,0,0,0-3.29,2.33,8.73,8.73,0,0,0,0,6.53,3.47,3.47,0,0,0,6.43.1A19.25,19.25,0,0,0,71,69.82Z"/><path class="cls-6" d="M83.67,52.49c0,3.68-2.46,6.29-5.91,6.27s-5.86-2.63-5.85-6.23a5.85,5.85,0,0,1,5.87-6.21C81.2,46.3,83.66,48.89,83.67,52.49Zm-1.88.18a30,30,0,0,0-.59-3.15A3.56,3.56,0,0,0,77.9,47a3.46,3.46,0,0,0-3.45,2.45,8.88,8.88,0,0,0,.07,6.32,3.33,3.33,0,0,0,3.18,2.3,3.28,3.28,0,0,0,3.35-2.23A21.08,21.08,0,0,0,81.79,52.67Z"/><path class="cls-6" d="M123.37,29.66h3.78c-1.64.34-1.53,1.55-1.53,2.75,0,2.71,0,5.43,0,8.15,0,.37,0,.75-.08,1.49l-8.27-10.21v2.48c0,1.55,0,3.11,0,4.67,0,1.09.12,2.16,1.57,2.41h-4.29c2.45-.57,1.91-2.3,1.94-3.75,0-1.84,0-3.68,0-5.51a1.92,1.92,0,0,0-1.64-2.28,2.9,2.9,0,0,1,3.67.67l6.12,7.56c0-2.55.08-4.8-.06-7.05C124.6,30.57,123.82,30.14,123.37,29.66Z"/><path class="cls-6" d="M295.2,29.76c1.66-.3,3.08-.38,4.24,1.31a56.84,56.84,0,0,0,5.71,6.78v-3c0-.92,0-1.84,0-2.76,0-1.12-.19-2.1-1.55-2.43h3.85c-2,.57-1.49,2.19-1.5,3.58,0,2.78,0,5.57-.27,8.5q-3.89-4.77-7.75-9.56l-.3,0v1.94c0,1.59,0,3.19,0,4.79s.13,1.68,1.73,2.43h-4.13c2-.47,1.55-2.11,1.57-3.5,0-1.91-.05-3.83,0-5.75C296.89,30.91,296.55,30.06,295.2,29.76Z"/><path class="cls-7" d="M148.47,52.49c0,3.68-2.46,6.29-5.91,6.27a5.86,5.86,0,0,1-5.85-6.23,5.85,5.85,0,0,1,5.87-6.21C146,46.31,148.46,48.89,148.47,52.49Zm-1.88.09a25,25,0,0,0-.62-3.12A3.52,3.52,0,0,0,142.63,47a3.44,3.44,0,0,0-3.36,2.41,8.88,8.88,0,0,0,0,6.32,3.49,3.49,0,0,0,6.58,0A20.94,20.94,0,0,0,146.59,52.58Z"/><path class="cls-7" d="M61.11,52.56c0,3.6-2.46,6.19-5.87,6.2s-5.92-2.64-5.89-6.31a5.83,5.83,0,0,1,5.95-6.13C58.7,46.34,61.11,48.93,61.11,52.56Zm-1.88.09a26.07,26.07,0,0,0-.61-3.18A3.54,3.54,0,0,0,55.28,47a3.41,3.41,0,0,0-3.36,2.4A8.78,8.78,0,0,0,52,55.82a3.47,3.47,0,0,0,6.48.08A20.92,20.92,0,0,0,59.23,52.65Z"/><path class="cls-7" d="M114.11,35.59c0,3.61-2.45,6.17-5.89,6.17s-5.86-2.54-5.87-6.17,2.5-6.31,5.93-6.27S114.11,32,114.11,35.59Zm-1.9.08a22.4,22.4,0,0,0-.69-3.3,3.49,3.49,0,0,0-6.58,0,8.54,8.54,0,0,0,0,6.53,3.49,3.49,0,0,0,6.49,0A19,19,0,0,0,112.21,35.67Z"/><path class="cls-6" d="M333,58.69c-2.56-3.16-5.11-6.32-7.8-9.63A5.25,5.25,0,0,0,325,50c0,1.92,0,3.84,0,5.76,0,1.12,0,2.26,1.46,2.69h-3.87c1.7-.29,1.61-1.55,1.6-2.78,0-2.16-.06-4.32,0-6.48.05-1.26-.31-2.1-1.73-2.31a3.15,3.15,0,0,1,4,.86l6,7.39c0-2.53.07-4.74-.06-6.94,0-.53-.78-1-1.17-1.47h3.62c-1.95.56-1.5,2.17-1.51,3.57,0,2.4,0,4.8,0,7.19,0,.39,0,.77-.05,1.16Z"/><path class="cls-6" d="M71.72,38.11c0-2.53.08-4.68,0-6.82,0-.57-.76-1.09-1.15-1.61h3.65c-1.93.41-1.53,1.92-1.54,3.23q0,4.25,0,8.51a4.51,4.51,0,0,1-.16.5l-7.93-9.77-.26,0v2.54c0,1.27,0,2.55,0,3.83s0,2.42,1.52,2.89H62c1.94-.52,1.53-2.09,1.54-3.46,0-1.8,0-3.6,0-5.4,0-1.31,0-2.46-1.65-2.86,1.64-.2,3-.39,4.18,1.29C67.68,33.4,69.66,35.56,71.72,38.11Z"/><path class="cls-7" d="M361.79,35.62c0-3.66,2.46-6.31,5.9-6.3s5.85,2.63,5.86,6.24-2.43,6.19-5.86,6.2S361.81,39.24,361.79,35.62Zm9.85,0a25.1,25.1,0,0,0-.65-3.22A3.46,3.46,0,0,0,367.63,30a3.41,3.41,0,0,0-3.28,2.36,8.64,8.64,0,0,0,0,6.42,3.5,3.5,0,0,0,6.55.06A20.57,20.57,0,0,0,371.64,35.65Z"/><path class="cls-7" d="M321.79,52.51c0,3.68-2.45,6.28-5.91,6.25A5.9,5.9,0,0,1,310,52.51a5.88,5.88,0,0,1,5.91-6.19C319.37,46.31,321.79,48.87,321.79,52.51Zm-9.85,0a22,22,0,0,0,.74,3.29,3.48,3.48,0,0,0,6.49.1,8.47,8.47,0,0,0,0-6.75,3.34,3.34,0,0,0-3.3-2.16,3.25,3.25,0,0,0-3.15,2.17A22.7,22.7,0,0,0,311.94,52.52Z"/><path class="cls-7" d="M384.35,35.59c0-3.66,2.5-6.3,5.93-6.27s5.84,2.66,5.83,6.26-2.45,6.18-5.89,6.18S384.36,39.22,384.35,35.59Zm9.83.14a27,27,0,0,0-.52-3.08A3.67,3.67,0,0,0,390.32,30a3.54,3.54,0,0,0-3.46,2.47,8.78,8.78,0,0,0,.07,6.32,3.33,3.33,0,0,0,3.19,2.29,3.29,3.29,0,0,0,3.35-2.22A18.47,18.47,0,0,0,394.18,35.73Z"/><path class="cls-6" d="M125.82,52.2h4.27c-1.09.37-1.15,1.2-1.11,2.11,0,.52,0,1,0,1.56,0,1.9,0,2-1.87,2.42a11.08,11.08,0,0,1-3.88.31,5.83,5.83,0,0,1-5.17-7,6.09,6.09,0,0,1,7.27-5.1,11.59,11.59,0,0,0,1.17.25c.65,0,1.3,0,2.16,0,0,.91.09,2.11.14,3.32l-.28.11c-.21-.33-.43-.65-.61-1a3.64,3.64,0,0,0-3.75-2.07A3.88,3.88,0,0,0,120.55,50c-.68,2.41-.87,4.84,1.12,6.83a4.23,4.23,0,0,0,4.77.87c.29-.1.7-.43.71-.67a19.88,19.88,0,0,0-.06-3.7C127,52.91,126.3,52.6,125.82,52.2Z"/><path class="cls-7" d="M157.78,46.62h3.76c-2,.43-1.54,2-1.55,3.27,0,2.9,0,5.81-.28,8.86l-8-9.81c0,2.8-.08,5.34,0,7.86,0,.56.77,1.09,1.17,1.61H149.3c1.71-.31,1.57-1.6,1.57-2.81,0-2-.06-4.08,0-6.12.05-1.3-.11-2.37-1.64-2.75,1.59-.22,3-.43,4.13,1.23,1.67,2.41,3.66,4.6,5.67,7.09,0-2.51.07-4.76-.06-7C159,47.56,158.22,47.11,157.78,46.62Z"/><path class="cls-7" d="M149.22,63.76c1.71-.28,3.11-.31,4.26,1.36,1.57,2.3,3.47,4.38,5.24,6.55L159,72a7.72,7.72,0,0,0,.13-1c0-1.59,0-3.19,0-4.79s-.11-1.82-1.81-2.52h4.26c-.08.09-.16.26-.25.28-1.13.16-1.36.92-1.36,1.9,0,2.92,0,5.84,0,8.75,0,.34,0,.68-.07,1.4l-8-9.87-.28,0v1.57c0,1.55,0,3.11,0,4.67,0,1.22-.08,2.52,1.52,3h-3.82c1.93-.48,1.52-2,1.53-3.35,0-1.8,0-3.6,0-5.4C150.93,65.39,150.92,64.16,149.22,63.76Z"/><path class="cls-7" d="M294.43,35.56c0,3.66-2.38,6.19-5.83,6.2a5.86,5.86,0,0,1-5.93-6.27,5.91,5.91,0,0,1,5.94-6.17C292,29.33,294.43,31.93,294.43,35.56Zm-1.81.09a21.94,21.94,0,0,0-.79-3.42,3.49,3.49,0,0,0-6.5,0,8.71,8.71,0,0,0,0,6.65,3.49,3.49,0,0,0,6.44.08A21.54,21.54,0,0,0,292.62,35.65Z"/><path class="cls-6" d="M462.64,33.25v4.12c-.47-.6-.8-1.42-1.29-1.54a13.65,13.65,0,0,0-3.33-.14c-.16,0-.44.42-.45.65a33.06,33.06,0,0,0,0,3.59,1.16,1.16,0,0,0,.74.82,10.11,10.11,0,0,0,3.44-.15,11.57,11.57,0,0,0,2.79-1.91c-.19.78-.4,1.7-.67,2.59,0,.13-.4.23-.61.23-3,0-6,0-9.13-.09,2.12-.45,1.52-2,1.55-3.31,0-2,0-4,0-6,0-1.7,0-1.7-1.63-2.42.49-.06.77-.12,1.05-.13,2.44,0,4.88.05,7.32,0,1,0,1.39.26,1.28,1.25,0,.44,0,.88,0,1.43-.59-.69-1-1.58-1.52-1.69a20.72,20.72,0,0,0-4.17-.19c-.16,0-.44.51-.46.79a23.1,23.1,0,0,0,0,3c0,.28.43.57.72.76s.47,0,.71,0C460.44,34.9,462.08,35.32,462.64,33.25Z"/><path class="cls-7" d="M274.67,29.83V33l-.2.12c-.21-.33-.42-.66-.61-1a3.6,3.6,0,0,0-3.54-2,4,4,0,0,0-3.57,2.25c-1.21,2.31-.78,5.82.86,7.41a4.46,4.46,0,0,0,4.88.88c.15-.06.4-.13.41-.21a27.83,27.83,0,0,0,.23-4c0-.43-.73-.83-1.11-1.22h3.7a15.48,15.48,0,0,0-.75,1.95,7.84,7.84,0,0,0,0,1.68c0,1.86,0,2-1.86,2.39a10.94,10.94,0,0,1-3.89.34c-3.79-.52-5.87-3.73-5.05-7.52.75-3.46,4.15-5.38,7.9-4.5A17.94,17.94,0,0,0,274.67,29.83Z"/><path class="cls-6" d="M359.44,67.29v4.08c-.49-.6-.82-1.4-1.31-1.52a14.18,14.18,0,0,0-3.33-.17c-.15,0-.42.43-.43.67a30.7,30.7,0,0,0,0,3.59,1.22,1.22,0,0,0,.85.84,22.92,22.92,0,0,0,3.1-.07,2.71,2.71,0,0,0,2.29-1.53,1.17,1.17,0,0,1,.77-.6c-.21.86-.38,1.74-.64,2.58a.83.83,0,0,1-.65.38c-3,0-6,0-9.07-.09,1.92-.47,1.44-1.92,1.46-3.14,0-2,0-4,0-6,0-1.11.26-2.38-1.68-2.38l.24-.33h3.85c1.44,0,2.88.06,4.32,0,.95-.06,1.43.17,1.31,1.21a11.07,11.07,0,0,0,0,1.42c-.6-.68-1-1.57-1.56-1.68a22.29,22.29,0,0,0-4.17-.17c-.15,0-.38.36-.42.59a5.24,5.24,0,0,0,0,1.19c0,.9-.09,2.48.22,2.58a7.27,7.27,0,0,0,3.41.07C358.51,68.69,358.89,67.88,359.44,67.29Z"/><path class="cls-8" d="M151.34,29.56c2.94,0,5.88,0,8.82,0a.74.74,0,0,1,.55.42c.06.69,0,1.39,0,2.4-.26-.43-.43-.58-.47-.77a1.63,1.63,0,0,0-1.63-1.32l-.36,0c-3.73-.22-4.11.17-3.65,3.91,0,.27.41.6.69.69a3.92,3.92,0,0,0,1.19,0c1.3,0,2.76.25,3.17-1.64V37a7.3,7.3,0,0,0-1.95-1.3,7.21,7.21,0,0,0-2.62,0c-.19,0-.47.48-.48.74-.06,1.12,0,2.24,0,3.36a.87.87,0,0,0,1,1c.76,0,1.52,0,2.28,0A3.16,3.16,0,0,0,161,39c.09-.2.28-.35.7-.4-.24.89-.45,1.78-.72,2.66,0,.15-.36.29-.56.3-3,0-6,0-9.22-.11,2-.32,1.57-1.75,1.58-3,0-2.12,0-4.24,0-6.36C152.78,30.38,152.76,30.36,151.34,29.56Z"/><path class="cls-8" d="M262.54,32.17c-.6-.67-1-1.55-1.57-1.66a23,23,0,0,0-4.16-.17c-.15,0-.38.38-.43.61a5.27,5.27,0,0,0,0,1.19c.06.9,0,2.49.26,2.57a8.24,8.24,0,0,0,3.53,0c.48-.09.81-.92,1.28-1.5v4c-.78-2.5-2.85-1.4-4.43-1.56-.19,0-.59.47-.61.74-.07,1.12,0,2.24,0,3.36,0,.7.31,1,1,1s1.52,0,2.28,0A3.16,3.16,0,0,0,262.76,39a2.54,2.54,0,0,1,.41-.52l.28.11c-.23.88-.43,1.78-.71,2.65-.06.16-.44.3-.66.31-3,0-6,0-9.11-.1,2-.38,1.57-1.83,1.57-3.08,0-2.11,0-4.23,0-6.35,0-1.08,0-2.08-1.49-2.31a7.5,7.5,0,0,1,.81-.11c2.4,0,4.8.07,7.19,0,1.15-.05,1.62.26,1.49,1.41A9.92,9.92,0,0,0,262.54,32.17Z"/><path class="cls-6" d="M132.71,75.27c1.68-.12,1.47-1.38,1.47-2.51q0-3.18,0-6.35c0-1.14.17-2.38-1.44-2.81h7.58c2,0,2.33.43,1.72,2.46-.44-.51-.83-1.41-1.38-1.52a22.15,22.15,0,0,0-4.16-.18c-.17,0-.47.42-.49.65a29.18,29.18,0,0,0,0,3.24c0,.23.41.57.68.64a5.7,5.7,0,0,0,1.31,0c1.31,0,2.68.18,2.78-1.91l.29.26v4c-.84-2.54-3-1.44-4.59-1.61-.14,0-.47.38-.48.6a26.87,26.87,0,0,0,0,3.59,1.37,1.37,0,0,0,.91.92,15.4,15.4,0,0,0,2.63,0,3.22,3.22,0,0,0,3.1-2.45l.41.24c-.23.9-.44,1.82-.72,2.71,0,.14-.39.26-.6.26-3,0-6,0-9-.06A1.8,1.8,0,0,1,132.71,75.27Z"/><path class="cls-6" d="M379.47,63.6c2.94,0,5.88,0,8.82,0a.81.81,0,0,1,.58.51,16.32,16.32,0,0,1,0,2c-.17,0-.3,0-.3,0-.38-1.58-1.5-1.82-2.92-1.79-3,.06-3,0-3,3,0,1.8-.27,1.55,1.59,1.58h.24c1.35,0,2.85.3,3-2l.27.28v4c-.11,0-.22,0-.25,0-.36-.48-.64-1.31-1.08-1.4a15.88,15.88,0,0,0-3.45-.15c-.11,0-.32.4-.33.63a33.07,33.07,0,0,0,0,3.59,1.25,1.25,0,0,0,.84.86,14.69,14.69,0,0,0,3.57-.19,4.4,4.4,0,0,0,1.69-1.19,4.31,4.31,0,0,0,.62-.93l.3.1c-.21.89-.4,1.78-.65,2.66a.72.72,0,0,1-.57.31c-3,0-6,0-9.19-.1,1.94-.4,1.53-1.86,1.54-3.09,0-2.07,0-4.15,0-6.23,0-1.08,0-2.14-1.6-2.2Z"/><path class="cls-6" d="M359,58.19c1.65,0,1.55-1.17,1.55-2.25,0-2.32,0-4.64,0-6.95,0-1.07-.06-2.06-1.48-2.3a3.15,3.15,0,0,1,.67-.12c2.52,0,5,0,7.56,0,1,0,1.39.22,1.27,1.23a10.93,10.93,0,0,0,0,1.41c-.6-.68-1-1.58-1.56-1.68a20.59,20.59,0,0,0-4.16-.17c-.17,0-.45.5-.47.78a21.31,21.31,0,0,0,0,3c0,.28.41.64.7.75a3.62,3.62,0,0,0,1.19,0c1.32,0,2.78.27,2.9-1.93l.28.27v4.19a3.91,3.91,0,0,0-4.61-1.78.86.86,0,0,0-.47.63,28.67,28.67,0,0,0,0,3.59,1.38,1.38,0,0,0,.93.9,16.49,16.49,0,0,0,2.63,0A3.41,3.41,0,0,0,369,55.34l.37.2c-.24.91-.46,1.83-.74,2.72,0,.14-.4.25-.61.25l-8.87,0S359.1,58.38,359,58.19Z"/><path class="cls-6" d="M24.09,54.23c-.83-2.53-2.92-1.41-4.5-1.59-.17,0-.56.42-.57.67-.06,1.15,0,2.31,0,3.47,0,.72.36,1,1,1s1.6,0,2.4,0a3.16,3.16,0,0,0,3-2,1.92,1.92,0,0,1,.36-.4l.29.12c-.24.88-.46,1.77-.73,2.65a.7.7,0,0,1-.55.31c-3,0-6,0-9.21-.11,2-.33,1.55-1.75,1.56-3,0-2.12,0-4.24,0-6.36,0-1.13-.08-2.1-1.5-2.41.27,0,.55-.09.83-.1,2.4,0,4.8.08,7.2,0,1.17-.06,1.58.29,1.46,1.41A4.94,4.94,0,0,1,25,49.17c-.41-1.13-1-2-2.27-1.9-1.08,0-2.17,0-3.24.06-.19,0-.47.49-.49.77a20,20,0,0,0,0,3c0,.28.42.6.72.75a2.3,2.3,0,0,0,.95,0c2.23,0,2.23,0,3.39-1.79Z"/><path class="cls-6" d="M336.53,33.27v4c-.84-2.59-3-1.45-4.58-1.61-.16,0-.52.44-.53.69a22.32,22.32,0,0,0,0,3.47,1.34,1.34,0,0,0,.92.9,13.59,13.59,0,0,0,2.63,0,3,3,0,0,0,2.8-1.74,1,1,0,0,1,.71-.49c-.22.86-.41,1.73-.67,2.58a.65.65,0,0,1-.47.38c-3.09,0-6.17,0-9.36-.13,1.77-.19,1.62-1.43,1.63-2.59,0-2.23,0-4.47,0-6.71,0-1.1-.05-2.14-1.55-2.4a7.14,7.14,0,0,1,.79-.11c2.48,0,5,.06,7.43,0,1.08,0,1.45.29,1.3,1.33a5.7,5.7,0,0,1-.17,1.33c-.4-1.15-1-1.95-2.27-1.91-1.08,0-2.16,0-3.23.06-.2,0-.5.49-.51.77a23.06,23.06,0,0,0,0,3.11c0,.25.42.58.71.66a4.75,4.75,0,0,0,1.31,0c1.29,0,2.69.17,2.78-1.93Z"/><path class="cls-7" d="M95.88,72.57c-.23.86-.42,1.73-.69,2.57a.81.81,0,0,1-.61.4c-3,0-6,0-9,0,0,0-.09-.11-.22-.29C87.09,75.23,87,74,87,72.9c0-2.24,0-4.48,0-6.72,0-1.12,0-2.25-1.55-2.48.27,0,.55-.09.82-.1,2.44,0,4.88,0,7.32,0,1,0,1.57.19,1.39,1.34a4.11,4.11,0,0,1-.21,1.22,2.06,2.06,0,0,1-.31-.5,1.68,1.68,0,0,0-1.77-1.31h-.36c-3.86-.09-3.94,0-3.54,3.88,0,.26.38.57.66.69a2.31,2.31,0,0,0,1,0c1.38,0,3,.47,3.49-1.66v4c-.83-2.48-2.89-1.43-4.48-1.59a.89.89,0,0,0-.62.6,24,24,0,0,0,0,3.6,1.35,1.35,0,0,0,.92.92,18.69,18.69,0,0,0,3-.06,2.77,2.77,0,0,0,2.38-1.58,7,7,0,0,1,.51-.7Z"/><path class="cls-6" d="M379.21,41.48h-4.76c1.91-.59,1.37-2.19,1.4-3.5,0-2,0-4,0-6,0-1.6-.05-1.61-1.44-2.29,2.6,0,5.25-.61,7.76.58A2.68,2.68,0,0,1,383.71,33,2.6,2.6,0,0,1,382,35.67a14.15,14.15,0,0,1-3.49.58c-.67,0-.93.2-.87.89a11.88,11.88,0,0,1,0,1.79c-.07,1.2-.05,2.31,1.79,2.25Zm2.54-8.54a2.81,2.81,0,0,0-3.55-2.66,1,1,0,0,0-.51.75c-.05,1.28,0,2.56,0,3.83a.9.9,0,0,0,.41.69A2.75,2.75,0,0,0,381.75,32.94Z"/><path class="cls-7" d="M106.69,58.21c2.06,0,1.89-1.3,1.9-2.45V49c0-1.64-.06-1.7-1.76-2.32a5.78,5.78,0,0,1,.89-.15c2.52,0,5,.06,7.56,0,1.09,0,1.43.31,1.29,1.33a8.88,8.88,0,0,0,0,1.27c-.61-.67-1-1.54-1.57-1.65a22.23,22.23,0,0,0-4.17-.15c-.15,0-.39.35-.44.58a4.77,4.77,0,0,0,0,1.07c0,3.11.41,3.49,3.53,2.81.61-.14,1.06-.95,1.6-1.46v3.88c-.83-2.45-2.87-1.44-4.46-1.57-.2,0-.62.44-.64.7a22.33,22.33,0,0,0,0,3.47,1.38,1.38,0,0,0,.91.94,17.22,17.22,0,0,0,2.87,0A2.9,2.9,0,0,0,116.74,56a1,1,0,0,1,.74-.5c-.22.85-.41,1.72-.69,2.55a.91.91,0,0,1-.7.42c-2.92,0-5.84,0-8.76,0C107.23,58.5,107.14,58.42,106.69,58.21Z"/><path class="cls-6" d="M341.32,75.44c1.5-.31,1.42-1.47,1.42-2.58,0-2.27,0-4.55,0-6.82,0-1.05-.06-2.05-1.54-2.13l.08-.31h1.16c1.79.07,3.6,0,5.36.26a2.93,2.93,0,0,1,2.79,2.92,3,3,0,0,1-2.66,3.3,6.83,6.83,0,0,1-2.24.22c-1-.09-1.25.31-1.15,1.21a8,8,0,0,1,0,1.55c-.12,1.22.09,2.18,1.58,2.38Zm7.32-8.52a2.83,2.83,0,0,0-3.61-2.6.82.82,0,0,0-.46.55c0,1.39,0,2.79,0,4.19a.76.76,0,0,0,.44.53A2.75,2.75,0,0,0,348.64,66.92Z"/><path class="cls-8" d="M398.29,63.64h4.11c-2.08.71-1.41,2.46-1.48,3.9-.09,1.68,0,3.36-.2,5a3.39,3.39,0,0,1-2.93,3.07c-3.81.83-6-.9-6-4.77,0-1.6,0-3.2,0-4.8,0-1.17-.13-2.1-1.55-2.34h4.81c-1.84.32-1.41,1.76-1.43,3,0,1.68,0,3.36,0,5,.07,2.2,1,3.2,3,3.24,2.16,0,3.26-.89,3.38-3.12.12-2,.09-4.08.05-6.12C400.05,64.55,400,64.54,398.29,63.64Z"/><path class="cls-7" d="M62.08,58.39c1.31-.28,1.38-1.29,1.38-2.32,0-2.32,0-4.64,0-7,0-1.08,0-2.13-1.49-2.39,2.49-.06,4.93-.54,7.31.31a2.85,2.85,0,0,1,2,2.83,2.77,2.77,0,0,1-1.89,2.89,8.16,8.16,0,0,1-2.92.5c-1.14-.06-1.39.35-1.27,1.35a9,9,0,0,1,0,1.56c-.06,1.12.09,2.06,1.52,2.23Zm3.15-8.53c0,.67,0,1.36,0,2,0,.24.33.67.44.64,1-.21,2.28-.22,2.94-.85a3.72,3.72,0,0,0,.54-2.74c-.13-1.15-1.94-2-3.31-1.67-1.19.28-.43,1.32-.63,2A2.41,2.41,0,0,0,65.23,49.86Z"/><path class="cls-9" d="M228.13.28l1.45,0V27.11l-3.12.21.48-.21c1.1.12,1.22-.56,1.21-1.43Q228.14,13,228.13.28Z"/><path class="cls-7" d="M254.19,63.67H259c-.56.39-1.2.6-1.42,1a4.25,4.25,0,0,0-.14,1.76c0,1.76,0,3.52,0,5.28,0,2.08,1,3.12,2.91,3.22,2.16.1,3.4-.89,3.51-3s0-4.24,0-6.36c0-1.08-.69-1.5-1.57-1.89h3.87c-1.63.47-1.53,1.8-1.53,3.06,0,1.56,0,3.12,0,4.68-.06,2.77-1.48,4.21-4.21,4.35-2.91.14-4.57-1.14-4.82-3.94-.17-1.87-.07-3.76-.08-5.63C255.54,65.15,255.79,63.94,254.19,63.67Z"/><path class="cls-7" d="M333.53,64c-1.85-.06-1.72,1.1-1.71,2.22,0,1.84,0,3.68,0,5.51,0,2.14,1,3.22,3,3.28,2.13.06,3.34-1,3.44-3.09a49.81,49.81,0,0,0,0-6.23c-.06-.71-.81-1.36-1.21-2h3.56c-1.95.68-1.48,2.34-1.52,3.77s0,3,0,4.43c-.12,2.48-1.62,3.83-4.23,3.93s-4.45-1.08-4.7-3.52c-.21-2-.12-4-.15-6,0-1.1.29-2.39-1.74-2.34l.29-.35h4.78Z"/><path class="cls-6" d="M326.33,63.11c.17,1.58.29,2.79.42,4l-.27.11c-.15-.31-.31-.62-.45-.94a3.08,3.08,0,0,0-2.8-2.11,2.31,2.31,0,0,0-1.84.92,2.34,2.34,0,0,0,.41,2,9.09,9.09,0,0,0,2.12,1.54c.46.31.95.59,1.4.91,1.7,1.21,2.24,2.67,1.58,4.19a3.85,3.85,0,0,1-4.34,2,8,8,0,0,0-1-.27c-.59,0-1.18,0-1.93,0-.13-.92-.3-2.14-.48-3.36l.27-.09.61,1a3.61,3.61,0,0,0,3,2.11,2,2,0,0,0,2.22-1.27,2,2,0,0,0-.7-2.47c-1.09-.81-2.35-1.41-3.35-2.3a4.38,4.38,0,0,1-1.51-2.39c-.31-2.27,1.77-3.75,4.14-3.19C324.57,63.69,325.41,64.43,326.33,63.11Z"/><path class="cls-10" d="M349.15,32.91c-.29-.4-.43-.51-.45-.64-.34-1.78-1.27-1.92-2.94-1.87a1.07,1.07,0,0,0-.74.72c0,2.91,0,5.83,0,8.75,0,1.21,1,1.11,1.61,1.57h-5c2-.28,1.56-1.83,1.57-3.11,0-2.31,0-4.63,0-6.95,0-.75-.19-1.05-1-1-1.77,0-2.11.22-2.81,1.94-.05.13-.16.22-.49.29.05-.84,0-1.69.16-2.52,0-.2.48-.48.73-.48,2.88,0,5.76,0,8.63,0a1.08,1.08,0,0,1,.73.72A21.32,21.32,0,0,1,349.15,32.91Z"/><path class="cls-10" d="M93.13,41.44h-5c1.94-.17,1.58-1.61,1.59-2.81,0-2.39,0-4.79,0-7.19,0-.81-.21-1.07-1.06-1.1a2.46,2.46,0,0,0-2.86,2.44l-.37-.19c0-.91.07-1.81.17-2.71,0-.13.43-.3.65-.31q4.38,0,8.75,0c.23,0,.65.27.66.43a8.12,8.12,0,0,1-.19,2.62,3.73,3.73,0,0,0-.44-1c-.36-.44-.75-1-1.23-1.14-1.94-.57-2.25-.28-2.25,1.74v6.59C91.55,40.72,91.55,40.72,93.13,41.44Z"/><path class="cls-6" d="M341.57,46.07c.75,1.69,1.37,3.06,2,4.43.9,2,1.75,4.11,2.7,6.13a11,11,0,0,0,1.29,1.76h-4c.3-.31,1-.72.9-1a11.67,11.67,0,0,0-1-2.65c-.07-.15-.51-.15-.78-.16a15.53,15.53,0,0,1-2.16,0c-1.43-.25-2.07.42-2.45,1.71s-.37,1.45,1,2.12h-3.25a18,18,0,0,0,1.49-2.35c1.27-2.84,2.45-5.72,3.67-8.58C341.08,47.12,341.25,46.77,341.57,46.07Zm-.49,2.87-1.77,4.19c-.17.41-.27.77.4.76.92,0,1.83,0,2.74,0,.16,0,.45-.47.39-.61C342.33,51.87,341.74,50.53,341.08,48.94Z"/><path class="cls-8" d="M416.2,41.4c1.61-.12,1.56-1.27,1.55-2.42,0-2.56,0-5.12,0-7.68,0-.74-.23-.93-.95-1-1.67-.06-2.79.51-3,2.45l-.4-.18c.05-.91.07-1.81.17-2.71,0-.14.42-.32.65-.33q4.38,0,8.76,0c.24,0,.67.32.69.52a6.22,6.22,0,0,1-.25,2.53,3.75,3.75,0,0,0-.41-1c-.36-.43-.76-1-1.24-1.13-2-.56-2.26-.28-2.26,1.75V39c0,1.13-.11,2.31,1.56,2.41Z"/><path class="cls-6" d="M290.44,58.44c1.51-.26,1.1-1.18.77-2-.68-1.79-.68-1.79-2.63-1.79h-1c-2,0-2.51.4-2.75,2.36-.05.46.48,1,.72,1.46h-2.82a15.86,15.86,0,0,0,1.48-2.28c1.28-2.88,2.48-5.79,3.71-8.69.15-.36.34-.71.61-1.27.28.54.49.9.66,1.28,1.25,2.85,2.46,5.72,3.76,8.54a19.63,19.63,0,0,0,1.53,2.44Zm-2.34-9.51c-.67,1.6-1.21,2.92-1.77,4.22-.23.53-.09.74.47.73.88,0,1.75,0,2.62,0,.58,0,.68-.19.45-.72C289.3,51.88,288.78,50.56,288.1,48.93Z"/><path class="cls-6" d="M135.91,41.42c.22-.43.74-1,.67-1.38-.35-1.92-.83-2.39-2-2.4a10.14,10.14,0,0,1-1.91,0c-1.46-.28-2,.47-2.44,1.72-.3,1-.45,1.74.86,2.06h-3a29.08,29.08,0,0,0,1.64-2.84c1.25-2.8,2.41-5.64,3.62-8.45a2.83,2.83,0,0,1,.46-.63,3.44,3.44,0,0,1,.47.63c1.37,3.1,2.7,6.21,4.11,9.29a13.92,13.92,0,0,0,1.39,2ZM133.3,32c-.68,1.62-1.23,2.95-1.79,4.27-.23.52-.1.72.48.71.88,0,1.76,0,2.64,0,.17,0,.5-.43.46-.55C134.57,35,134,33.62,133.3,32Z"/><path class="cls-6" d="M86.77,41.48H82.55c.41-.35,1.13-.72,1.08-1a13.14,13.14,0,0,0-.94-2.68c0-.13-.41-.19-.63-.19-1.16,0-2.32,0-3.48,0a1.46,1.46,0,0,0-.86.59,4.4,4.4,0,0,0-.42,1c-.42.93-.62,1.78.73,2.18h-3a25.59,25.59,0,0,0,1.64-2.77c1.25-2.81,2.41-5.65,3.62-8.48a4.34,4.34,0,0,1,.43-.68,3.27,3.27,0,0,1,.56.68c1.35,3,2.65,6.07,4,9.09A17.37,17.37,0,0,0,86.77,41.48ZM80.33,32c-.39.89-.65,1.46-.89,2-1.3,3.1-1.3,3.1,2.08,2.89.08,0,.2,0,.23,0s.41-.46.36-.6C81.59,35,81,33.62,80.33,32Z"/><path class="cls-6" d="M435,41.48h-4.19c.4-.37,1.1-.76,1-1a13,13,0,0,0-1-2.67c-.07-.14-.51-.15-.78-.15-.75,0-1.52,0-2.28,0a2.33,2.33,0,0,0-2.56,2.56c0,.42.58.83.95,1.32h-2.92c.64-1.21,1.37-2.42,2-3.7,1.14-2.55,2.2-5.14,3.31-7.7a4,4,0,0,1,.45-.65,3.5,3.5,0,0,1,.48.63c1.36,3.07,2.67,6.15,4.07,9.2A15.56,15.56,0,0,0,435,41.48ZM428.51,32c-.68,1.6-1.23,2.93-1.8,4.24-.21.5-.14.74.47.73.92,0,1.84,0,2.76,0,.13,0,.41-.41.36-.54C429.77,35,429.2,33.63,428.51,32Z"/><path class="cls-8" d="M29.17,58.39c1.39-.23,1.6-1.14,1.59-2.3,0-2.55-.05-5.11,0-7.66,0-.93-.3-1.13-1.17-1.13a2.41,2.41,0,0,0-2.74,2.43l-.3-.16c0-.87,0-1.75,0-2.62,0-.14.44-.37.69-.37q4.37,0,8.74,0c.24,0,.66.24.68.4a7.43,7.43,0,0,1-.23,2.62,3.45,3.45,0,0,0-.42-1,3.2,3.2,0,0,0-1.25-1.11c-1.94-.61-2.25-.34-2.25,1.67,0,2.27,0,4.55,0,6.82,0,1.21.08,2.19,1.59,2.39Z"/><path class="cls-8" d="M296,58.39c1.46-.22,1.58-1.21,1.56-2.4,0-2.6,0-5.19,0-7.79,0-.67-.18-.88-.87-.9-1.67,0-2.9.45-3,2.55l-.42-.28c0-.83,0-1.68.15-2.5,0-.2.47-.49.73-.49q4.37,0,8.74,0c.23,0,.65.25.66.41a7.38,7.38,0,0,1-.21,2.58A4.87,4.87,0,0,1,303,49a2.5,2.5,0,0,0-3.12-1.65.92.92,0,0,0-.52.72c0,2.91-.09,5.83,0,8.74,0,.56.78,1.09,1.16,1.57Z"/><path class="cls-8" d="M243.9,58.42c1.78-.11,1.57-1.42,1.57-2.59,0-2.48,0-5,0-7.44,0-.82-.2-1.1-1.06-1.09-1.62,0-2.68.61-2.82,2.52l-.43-.25c.05-.88.07-1.76.17-2.64,0-.14.38-.35.59-.35,3,0,5.91,0,8.87,0,.22,0,.61.2.62.32.05.89,0,1.79,0,2.92a5,5,0,0,1-.44-.58c-.68-1.68-1.22-2.06-2.93-1.89a1.09,1.09,0,0,0-.74.72c-.05,2.92,0,5.84,0,8.75,0,1.15.81,1.29,1.61,1.6Z"/><path class="cls-6" d="M41.13,41.45H36.21c2-.34,1.56-1.87,1.57-3.16,0-2.27,0-4.55,0-6.83,0-.94-.34-1.11-1.19-1.12-1.6,0-2.6.6-2.71,2.45l-.32-.2c0-.91,0-1.81,0-2.71,0-.13.51-.3.78-.31,2.84,0,5.67,0,8.51,0,.67,0,.93.22.89.89a8.44,8.44,0,0,1-.27,2.21,4.23,4.23,0,0,0-.43-.94c-.35-.44-.72-1-1.2-1.18-1.94-.62-2.35-.27-2.35,1.76s0,4.15,0,6.23C39.56,39.75,39.17,41.22,41.13,41.45Z"/><path class="cls-8" d="M353.31,46.64c-1.8.79-1.8.79-1.8,2.65,0,2.43,0,4.87,0,7.3,0,.87.28,1.27,1.17,1.22.68-.05,1.36,0,2,0a3.38,3.38,0,0,0,3.29-2c.07-.15.24-.26.61-.27-.26.89-.48,1.78-.79,2.66-.06.16-.44.3-.68.31-2.87,0-5.75,0-8.62,0a3.31,3.31,0,0,1-.65-.29c2-.06,1.83-1.27,1.83-2.38,0-2.15,0-4.31,0-6.46,0-1.14.18-2.39-1.44-2.73Z"/><path class="cls-8" d="M150.9,38.54c-.24.84-.44,1.68-.74,2.5a.87.87,0,0,1-.65.46c-3,0-6,0-9.09-.09,2-.39,1.56-1.83,1.56-3.08,0-2.12,0-4.24,0-6.36,0-1.07,0-2.08-1.48-2.28h4.71c-1.84.45-1.41,1.94-1.43,3.21,0,2.24,0,4.47,0,6.71,0,.85.28,1.28,1.19,1.2.56-.05,1.12,0,1.68,0,1.58,0,2.92-.42,3.64-2a1.91,1.91,0,0,1,.35-.41Z"/><path class="cls-8" d="M407.33,38.52c-.23.83-.42,1.68-.7,2.49a.94.94,0,0,1-.67.49c-3,0-6,0-9.09-.08,2-.43,1.53-2,1.55-3.21,0-2,0-4.08,0-6.12,0-1.7,0-1.7-1.75-2.41h5.14c-.52.36-1.18.6-1.42,1.06a4,4,0,0,0-.16,1.76c0,2.36,0,4.72,0,7.08,0,1,.35,1.33,1.27,1.22a2.57,2.57,0,0,1,.48,0c2.11.09,4.14,0,5.06-2.54Z"/><path class="cls-11" d="M229.58,27.11V.25h1.2V27.1Z"/><path class="cls-12" d="M228.13.28q0,12.71,0,25.4c0,.87-.11,1.55-1.21,1.43V.28l1-.07Z"/><path class="cls-6" d="M94.94,55.43c-.27,1-.5,1.87-.79,2.75a.73.73,0,0,1-.56.32c-3,0-6,0-9.18-.1,1.94-.36,1.61-1.79,1.61-3q0-3.06,0-6.12c0-1.14.09-2.33-1.53-2.58h4.81c-1.79.3-1.52,1.67-1.52,2.87,0,2.32,0,4.64,0,7,0,1,.34,1.4,1.34,1.32.59-.05,1.2,0,1.8,0a3.43,3.43,0,0,0,3.39-2,.85.85,0,0,1,.23-.27S94.67,55.48,94.94,55.43Z"/><path class="cls-13" d="M173.91,118.56c-.24.32-.49.63-.73.94a4.11,4.11,0,0,1-.44-1.29c0-2.78.06-5.57.1-8.36,0-.57.06-1.17-.82-.62,0,0-.48-.35-.49-.55q-.28-6.23-.5-12.45c-.05-1.52,0-3,0-4.55l.73-1c0,2.44,0,4.88,0,7.32,0,.36.16,1,.29,1,.86.07.64.68.65,1.15,0,2.24,0,4.48,0,6.72a2.94,2.94,0,0,0,.43,1l.27-.23h0a9.81,9.81,0,0,1,.24,1.52c0,2.59,0,5.19,0,7.78A9.66,9.66,0,0,0,173.91,118.56Z"/><path class="cls-10" d="M143.66,63.65h5c-2,.38-1.61,1.93-1.62,3.26,0,2,0,4.08,0,6.12,0,1.19.12,2.18,1.6,2.41h-4.94c1.9-.22,1.53-1.67,1.54-2.88,0-2,0-4.08,0-6.12C145.22,65.25,145.45,63.92,143.66,63.65Z"/><path class="cls-8" d="M435.85,29.66h5c-1.86.23-1.66,1.62-1.67,2.88q0,3.1,0,6.22c0,1.94,0,1.94,2,2.66h-5.32c1.94-.16,1.54-1.6,1.55-2.79,0-2.12,0-4.23,0-6.34C437.44,31.1,437.59,29.85,435.85,29.66Z"/><path class="cls-10" d="M412.89,41.46h-5.21c.36-.19.53-.36.71-.37a1,1,0,0,0,1.05-1.18c0-2.88.07-5.76-.06-8.63,0-.57-.79-1.1-1.17-1.59h4.61c-2,.37-1.53,1.93-1.55,3.23,0,2,0,4,0,6,0,1.2,0,2.35,1.84,2.22Z"/><path class="cls-10" d="M304.22,46.6h5c-2.16.44-1.59,2.13-1.61,3.5,0,2,0,3.92,0,5.87,0,1.18.08,2.2,1.59,2.42h-4.93c2-.31,1.53-1.82,1.54-3.1q0-3,0-6c0-1.16.2-2.47-1.8-2.39Z"/><path class="cls-10" d="M378.76,75.48h-4.92c1.94-.36,1.53-1.86,1.54-3.14q0-3,0-6c0-1.9,0-1.9-1.83-2.64h5.26c-2.22.41-1.57,2.16-1.61,3.55-.05,2,0,3.92,0,5.88C377.15,74.29,377.35,75.21,378.76,75.48Z"/><path class="cls-10" d="M61.46,41.44H56.31c1.83-.23,1.55-1.61,1.55-2.81q0-3.12,0-6.24c0-1.17.25-2.53-1.56-2.74h5c-1.81.22-1.57,1.57-1.58,2.75,0,2.08,0,4.16,0,6.24S59.67,40.6,61.46,41.44Z"/><path class="cls-8" d="M130.83,46.62h5c-2,.31-1.66,1.81-1.67,3.11,0,2.08,0,4.15,0,6.23,0,1.8,0,1.8,1.68,2.43h-5c1.94-.18,1.54-1.64,1.54-2.86,0-2.11,0-4.23,0-6.34,0-1.17.13-2.38-1.83-2.24Z"/><path class="cls-10" d="M281.78,41.46h-5.12c.6-.37,1.31-.56,1.54-1a4.3,4.3,0,0,0,.14-1.88c0-2.08,0-4.15,0-6.23,0-1.92,0-1.92-1.85-2.69h5.29c-1.87.2-1.59,1.59-1.6,2.81q0,3.22,0,6.46C280.2,40.73,280.21,40.73,281.78,41.46Z"/><path class="cls-8" d="M268.88,58.43h-5.12a3.54,3.54,0,0,1,.75-.34c.8-.09,1.07-.59,1.07-1.32,0-2.79,0-5.59,0-8.38,0-1.13-.74-1.37-1.59-1.7h5.27a3,3,0,0,0-.83.34c-.35.3-.92.65-.93,1-.07,3-.1,6.06,0,9.08C267.56,57.58,268.44,58,268.88,58.43Z"/><path class="cls-14" d="M226.94.28V27.11l-.48.21H226q0-12,0-23.9a7.73,7.73,0,0,1,.08-1.67c.21-1-.12-1.36-1.1-1.21L224,.45Z"/><path class="cls-15" d="M225,.54c1-.15,1.31.22,1.1,1.21A7.73,7.73,0,0,0,226,3.42q0,12,0,23.9l-1,0q0-12.8,0-25.61C225,1.33,225,.93,225,.54Z"/><path class="cls-16" d="M230.78,27.1V.25c1,0,1,.74,1,1.42q0,7.14,0,14.28,0,5.57,0,11.15Z"/><path class="cls-6" d="M300.86,75.49h-5c.56-.4,1.2-.64,1.44-1.09a3.93,3.93,0,0,0,.17-1.76c0-2,0-4,0-6s0-2.07-1.74-3h5.13c-1.89.31-1.63,1.76-1.63,3,0,2.08,0,4.16,0,6.24C299.23,74.12,299.23,75.29,300.86,75.49Z"/><path class="cls-6" d="M101.4,41.49H96.51C98.57,41,98,39.38,98,38.05c0-1.83,0-3.67,0-5.51,0-2,0-2-1.7-2.89h5.08c-2.11.43-1.58,2.1-1.61,3.47,0,1.79,0,3.59,0,5.39C99.8,39.77,99.54,41.18,101.4,41.49Z"/><path class="cls-17" d="M171,91.68c0,1.52-.05,3,0,4.55q.21,6.22.5,12.45c0,.2.45.57.49.55.88-.55.83,0,.82.62,0,2.79-.1,5.58-.1,8.36a4.11,4.11,0,0,0,.44,1.29c-.32.41-.64.81-1,1.22L172,121a5,5,0,0,1-.46-1.29c-.22-3.45,0-6.88-.39-10.35-.56-5.53-.43-11.12-.59-16.68Z"/><path class="cls-18" d="M173.16,108a2.94,2.94,0,0,1-.43-1c0-2.24,0-4.48,0-6.72,0-.47.21-1.08-.65-1.15-.13,0-.28-.68-.29-1,0-2.44,0-4.88,0-7.32h0l.21-.27.76-.9c0,2.48,0,5,0,7.43a2.16,2.16,0,0,0,.41.89c1-.39.75.4.76.83,0,2.15,0,4.31,0,6.47a13,13,0,0,0,.23,1.63v.24l-.73.7h0Z"/><path class="cls-15" d="M174.15,106.81a13,13,0,0,1-.23-1.63c0-2.16,0-4.32,0-6.47,0-.43.24-1.22-.76-.83a2.16,2.16,0,0,1-.41-.89c0-2.48,0-4.95,0-7.43.3-.34.61-.68.91-1,0,2.43,0,4.85,0,7.28,0,.49-.31,1.38.84,1a1.92,1.92,0,0,1,.32.84c0,2.23,0,4.46,0,6.68a9.71,9.71,0,0,0,.25,1.51l-.51.67Z"/><path class="cls-19" d="M170.55,92.64c.16,5.56,0,11.15.59,16.68.35,3.47.17,6.9.39,10.35A5,5,0,0,0,172,121l-.81,1.15-.28,0c0-.35-.1-.7-.11-1-.09-6-.15-12-.25-17.92,0-3-.17-6-.22-9A8.76,8.76,0,0,1,170.55,92.64Z"/><path class="cls-20" d="M174.15,106.81l.46-.27a9.69,9.69,0,0,1,.24,1.51c0,2.59,0,5.18,0,7.77a9.92,9.92,0,0,0,.21,1.52c-.24.24-.48.48-.71.73a4.36,4.36,0,0,1-.21-.92c0-3.36,0-6.73,0-10.1Z"/><path class="cls-21" d="M174.15,107.05c0,3.37,0,6.74,0,10.1a4.36,4.36,0,0,0,.21.92l-.47.49a9.66,9.66,0,0,1-.23-1.51c0-2.59,0-5.19,0-7.78a9.81,9.81,0,0,0-.24-1.52Z"/><path class="cls-2" d="M174.85,87.31l-.26.28Z"/><path class="cls-15" d="M173.89,88.27l-.26.28Z"/><path class="cls-13" d="M172,90.46l-.21.27Z"/><path class="cls-19" d="M172,121l.24-.24Z"/><path class="cls-21" d="M173.16,108l.27-.23Z"/></g></g></svg>