<svg xmlns="http://www.w3.org/2000/svg" viewBox="0 0 208.67 105.15" width="380"><defs><style>.cls-1{fill:#9c9c9c;}.cls-2{fill:#161616;}.cls-3{fill:#171717;}.cls-4{fill:#181818;}.cls-5{fill:#9b9b9b;}.cls-6{fill:#9d9d9d;}</style></defs><title>Element 8</title><g id="Ebene_2" data-name="Ebene 2"><g id="Ebene_1-2" data-name="Ebene 1"><path class="cls-1" d="M25.71,35l.44,1.92h4.41c-2.46,2.9-2.84,6.3-2.42,9.91A7.89,7.89,0,0,0,34.4,54a8.1,8.1,0,0,0,8.92-3.61C45.38,46.9,45.44,40,42,36.69l7.7-.27a17.7,17.7,0,0,0-1.41,1.47c-1.93,2.44-2.29,5.24-2,8.25.78,7.34,7.49,9.51,13.57,7.23V49c-1,.3-1.8.63-2.65.8a3.73,3.73,0,0,1-4.45-2.18,7.2,7.2,0,0,1,.28-6.79,3.11,3.11,0,0,1,3-1.75,34,34,0,0,1,3.61.66l.32-3.55H61.9L62.47,35V53.8h5.61V46.57h3v7.21h5.8V35.69l5,0c-.12.1-.24.21-.37.3C79.46,37.5,79,39.57,79.3,42a5,5,0,0,0,3.77,4.2,7.79,7.79,0,0,1,2.31,1,2.08,2.08,0,0,1,.8,1.63,2,2,0,0,1-1.27,1.29,7.82,7.82,0,0,1-2.72-.1,26.62,26.62,0,0,1-2.73-.72V53.5c.54.12,1.08.26,1.62.34,2.7.4,5.42.77,8-.62A5.92,5.92,0,0,0,92.25,47a4.9,4.9,0,0,0-3.83-4.64,10.47,10.47,0,0,1-2.34-.89c-.44-.27-1-.94-.9-1.34a2.28,2.28,0,0,1,1.15-1.31,2.48,2.48,0,0,1,1.51-.13c1.13.2,2.24.5,3.68.83v-4.1l7.66-.21a16.93,16.93,0,0,0-2.39,1.56c-3.39,3.09-3.76,7-2.67,11.13,1.6,6.1,7.65,7.38,13.46,5.43-.09-1.41-.17-2.86-.26-4.37-.86.27-1.56.54-2.29.72-2.49.61-4.5-.39-5.06-2.88A11.15,11.15,0,0,1,100,42c.58-2.49,2.74-3.51,5.23-2.81.64.17,1.24.47,2,.76v-4.3l-1.6-.64,4.13,0V53.79h5.8V46.57h3v7.21h5.66V35.1h-5.74v6.8h-3V35.1L114,34.94c.75-.06,1.51-.16,2.26-.18,8.43-.18,16.87-.33,25.3-.52q14.63-.35,29.26-.74l19.3-.47,16.07-.43h1.72c.22,8.07.44,16,.67,24.06a9.72,9.72,0,0,1-1.05.17l-21.1.49-30.82.76c-5.79.15-11.58.32-17.38.45l-33.33.76c-5.84.13-11.67.29-17.51.44l-30.33.75q-9.24.24-18.47.46-15.94.38-31.89.73c-1.95,0-3.9,0-6.07,0-.22-7.9-.44-15.86-.66-24l10.88-.41.47-2.3V53.76h5.74V46.58H20V53.8h5.68ZM187.4,53.8V35.11h-4.73V46.35h-.2l-3.06-11.29h-7.18v18.7H177V42.4h.18q1.55,5.68,3.1,11.4ZM135.86,35.07v1.58q0,5.4,0,10.8c0,1.84-.51,2.65-1.58,2.61s-1.47-.81-1.48-2.61c0-3.63,0-7.27,0-10.91,0-.47,0-.93-.07-1.44h-5.51a1.64,1.64,0,0,0-.13.44c0,4.12-.12,8.24,0,12.35.14,3.67,1.91,5.63,5.5,6.16,4.62.67,9.13-.89,9-7.41,0-3.4,0-6.8,0-10.2,0-.45,0-.91-.07-1.37Zm21.74,0V53.79h12.28V49.62h-6.55V46.3h5.8V42.12h-5.76V39.23h6.24V35.06Zm-7.44,14.37V35.1h-5.62V53.78H156V49.43Z"/><path class="cls-1" d="M107.34,27.07l-7.92.24V21h5.47V16.8H99.43V13.66h5.85v-4H93.7V28.22h5.38l.34-.91v1.12h-5.7l-.51-.68H87.14a8.76,8.76,0,0,0,3.5-4.43,13.15,13.15,0,0,0-.13-9.15,7.24,7.24,0,0,0-6.62-4.9c-3.56-.27-6.45.9-8,4.21a13.49,13.49,0,0,0-1.18,4.82c-.27,3.95.66,7.48,4.39,9.66l-8.94.3V13.8h3.72V9.65H60.47v4.24h3.84c0,1.39,0,2.66,0,3.92q0,5.32.11,10.65l-3,0,.23-4.57h-6V9.66H50.09V28.27c.63,0,1.18.07,1.73.08l9.21.14c-2.91.17-5.82.38-8.73.48-6.32.21-12.63.35-18.94.56-8.31.28-16.62.6-24.93.9-.51,0-1,0-1.77-.08-.3-8-.6-16-.9-24,2.14-.11,4-.25,5.94-.31,6.4-.2,12.79-.35,19.18-.55,9.59-.3,19.18-.64,28.77-1l28.28-1,28.4-1,27.81-.95q14.38-.48,28.76-1C178.25.44,183.6.21,189,0c.31,0,.62,0,1.25.08.31,8,.61,15.92.93,24.12L167,25.08l-.36,3.19V24.13h-6.52V20.82h5.73V16.6h-5.74v-3h6.21v-4H154.36V28.28L154,25.64h-2.26v-16h-4.87V21.09h-.22c-1-3.83-2.09-7.66-3.12-11.46h-7.43V26.13h-2.34l-.15-2h-6.51V20.8h5.8V16.55h-5.82V13.7h6.29V9.64H121.3v1.61q0,7.68,0,15.34l-7.91.25V21h5.47V16.79h-5.44V13.68h5.82v-4H107.47c0,.59-.07,1.1-.07,1.61C107.37,16.52,107.36,21.79,107.34,27.07ZM30.11,28.29C31.29,22,32.45,15.85,33.62,9.61H28.38c-.49,3.77-1,7.5-1.46,11.23l-.18,0Q26,15.21,25.27,9.64H18.8L17.29,20.89h-.18L15.72,9.63H10l3.47,18.63h6.74L21.82,16,22,16c.45,4.07.91,8.14,1.36,12.25Zm5.12-.05H47.44V24.13H41V20.79h5.78V16.54H40.93V13.68h6.28v-4h-12Z"/><path class="cls-2" d="M136.11,26.13V9.64h7.43c1,3.8,2.07,7.63,3.12,11.46h.22V9.65h4.87V28.32h-7.37l-.79-2.47-2.37-9.19-.28.05V28.27h-4.83Z"/><path class="cls-3" d="M114,34.94l1.43.16v6.8h3V35.1h5.74V53.78H118.5V46.57h-3v7.22h-5.8V35Z"/><path class="cls-3" d="M25.71,35V53.8H20V46.58H17.09v7.18H11.35V35H17.1V41.9H20V35Z"/><path class="cls-3" d="M76.89,35.69V53.78h-5.8V46.57h-3V53.8H62.47V35H68v6.9H71v-6l.09-.88h5.66Z"/><path class="cls-3" d="M42,36.69C45.44,40,45.38,46.9,43.32,50.38A8.1,8.1,0,0,1,34.4,54a7.89,7.89,0,0,1-6.26-7.14c-.42-3.61,0-7,2.42-9.91A8.77,8.77,0,0,1,42,36.69Zm-3.11,7.85c-.19-1.45-.28-2.81-.55-4.12a2,2,0,0,0-2-1.75c-1.16,0-1.69.83-2,1.79a14.67,14.67,0,0,0,0,8,2,2,0,0,0,1.9,1.7,1.87,1.87,0,0,0,1.94-1.62C38.58,47.22,38.72,45.83,38.92,44.54Z"/><path class="cls-3" d="M79.06,28c-3.73-2.18-4.66-5.71-4.39-9.66a13.49,13.49,0,0,1,1.18-4.82c1.59-3.31,4.48-4.48,8-4.21a7.24,7.24,0,0,1,6.62,4.9,13.15,13.15,0,0,1,.13,9.15,8.76,8.76,0,0,1-3.5,4.43A9.82,9.82,0,0,1,79.06,28Zm6.53-8.68a37,37,0,0,0-.85-4.74A2.67,2.67,0,0,0,83,13.22c-.86-.22-1.5.47-1.78,1.27a13.64,13.64,0,0,0,0,8.79A1.83,1.83,0,0,0,83,24.7a1.86,1.86,0,0,0,1.81-1.49C85.14,22,85.3,20.81,85.59,19.28Z"/><path class="cls-3" d="M121.25,26.59q0-7.66,0-15.34V9.64h12.08V13.7h-6.29v2.85h5.82V20.8h-5.8v3.3h6.51l.15,2v2.18H121.34Z"/><path class="cls-3" d="M154.36,28.28V9.64h11.93v4h-6.21v3h5.74v4.22h-5.73v3.31h6.52v4.14c-1.66,0-3.33.12-5,.12C159.2,28.38,156.78,28.32,154.36,28.28Z"/><path class="cls-3" d="M91.52,35.45v4.1c-1.44-.33-2.55-.63-3.68-.83a2.48,2.48,0,0,0-1.51.13,2.28,2.28,0,0,0-1.15,1.31c-.06.4.46,1.07.9,1.34a10.47,10.47,0,0,0,2.34.89A4.9,4.9,0,0,1,92.25,47a5.92,5.92,0,0,1-3.2,6.19c-2.55,1.39-5.27,1-8,.62-.54-.08-1.08-.22-1.62-.34V49.23a26.62,26.62,0,0,0,2.73.72,7.82,7.82,0,0,0,2.72.1,2,2,0,0,0,1.27-1.29,2.08,2.08,0,0,0-.8-1.63,7.79,7.79,0,0,0-2.31-1A5,5,0,0,1,79.3,42c-.34-2.39.16-4.46,2.24-5.93.13-.09.25-.2.37-.3A13.08,13.08,0,0,1,91.52,35.45Z"/><path class="cls-3" d="M145.27,79.33h-2.35q-1.87-6.75-3.73-13.46H139V79.32h-2.65V62.44h4.5c1.07,4,2.14,8.1,3.32,12.53,1.2-4.4,2.31-8.48,3.43-12.56h4.52V79.3h-3V66.24l-.27,0Z"/><path class="cls-3" d="M107.34,27.07c0-5.28,0-10.55.06-15.83,0-.51,0-1,.07-1.61h11.72v4h-5.82v3.11h5.44V21h-5.47v5.82l-.13,1.47h-5.72Z"/><path class="cls-3" d="M105.62,35l1.6.64V40c-.76-.29-1.36-.59-2-.76-2.49-.7-4.65.32-5.23,2.81a11.15,11.15,0,0,0,0,4.81c.56,2.49,2.57,3.49,5.06,2.88.73-.18,1.43-.45,2.29-.72.09,1.51.17,3,.26,4.37-5.81,2-11.86.67-13.46-5.43-1.09-4.12-.72-8,2.67-11.13a16.93,16.93,0,0,1,2.39-1.56A12.45,12.45,0,0,1,105.62,35Z"/><path class="cls-3" d="M60.07,36.18l-.32,3.55a34,34,0,0,0-3.61-.66,3.11,3.11,0,0,0-3,1.75,7.2,7.2,0,0,0-.28,6.79,3.73,3.73,0,0,0,4.45,2.18c.85-.17,1.67-.5,2.65-.8v4.38c-6.08,2.28-12.79.11-13.57-7.23-.32-3,0-5.81,2-8.25a17.7,17.7,0,0,1,1.41-1.47c3-2.15,6.15-2.05,9.44-1C59.52,35.5,59.77,35.91,60.07,36.18Z"/><path class="cls-3" d="M64.42,28.46q-.06-5.33-.11-10.65c0-1.26,0-2.53,0-3.92H60.47V9.65H73.84V13.8H70.12V28.26h0l-5.3.21Z"/><path class="cls-3" d="M55.27,100.61V87.88H58v16.87h-4.1L49,92.2l-.19,0v12.53H46.12V87.87h4l4.93,12.73Z"/><path class="cls-3" d="M79,62.4h2.69V79.28h-4L72.74,66.74l-.21,0V79.3H69.78V62.43h4.1c1.6,4.14,3.24,8.36,4.88,12.58H79Z"/><path class="cls-3" d="M195,79.3l-4.9-12.57-.22,0V79.31h-2.7V62.41h4.06c1.62,4.2,3.26,8.41,4.89,12.63l.2,0V62.44H199V79.3Z"/><path class="cls-3" d="M61,28.49l-9.21-.14c-.55,0-1.1-.05-1.73-.08V9.66h5.64V23.91h6l-.23,4.57Z"/><path class="cls-3" d="M63.49,87.71c2.07.11,4,.07,6,.33a6.49,6.49,0,0,1,5.71,5.06,11.19,11.19,0,0,1-.22,7.05,6.72,6.72,0,0,1-6,4.63c-1.77.18-3.58,0-5.46,0Zm3.11,14.58c2.71.41,4.57-.63,5.3-3A10.07,10.07,0,0,0,72,93.54a4.2,4.2,0,0,0-5.36-3.05Z"/><path class="cls-3" d="M157.69,79.35V62.23a54,54,0,0,1,6.7.47,6.66,6.66,0,0,1,5.3,6.32,16.7,16.7,0,0,1-.23,4.63,6.82,6.82,0,0,1-6.4,5.67C161.32,79.48,159.56,79.35,157.69,79.35Zm3.18-2.5c3,.26,4.69-.82,5.38-3.41a9.67,9.67,0,0,0-.15-5.66A4.23,4.23,0,0,0,160.87,65Z"/><path class="cls-3" d="M115,70.79c2.2,2.44,2.31,5.66,3.67,8.51h-3.39c-.42-1.33-.85-2.72-1.28-4.12-.13-.41-.25-.84-.4-1.25-.59-1.68-1.09-2-3.07-1.62v7h-3.07V62.24c2.44.13,4.91.09,7.31.44a3.72,3.72,0,0,1,3,3.6C117.84,68.68,117.12,69.83,115,70.79Zm-4.46-1.09c1.42.07,2.8.31,3.66-1a2.52,2.52,0,0,0,0-2.94c-.91-1.26-2.29-1-3.64-.89Z"/><path class="cls-3" d="M116.49,87.89v6.78h4.76V87.91h3.11v16.83h-3v-7.3h-4.79v7.32h-3.12V87.89Z"/><path class="cls-2" d="M22.54,62.89v2.59c-.57-.22-1-.4-1.51-.57-3.25-1.15-6,.26-6.83,3.59a9.26,9.26,0,0,0,.31,5.88,4.09,4.09,0,0,0,5.6,2.44V72.23H17.9v-2.3H23v8.72c-2.53,1.4-7.92,1.63-10.35-1.26-2.56-3-2.74-9.08-.25-12.35A8.39,8.39,0,0,1,22.54,62.89Z"/><path class="cls-2" d="M51.88,63l-.22,2.42a26.87,26.87,0,0,0-2.6-.79,4.51,4.51,0,0,0-5.16,2.57,8.59,8.59,0,0,0,0,7.64,3.91,3.91,0,0,0,5.33,2V72.24l-2.13-.1V69.92h5V78.7c-3.46,1.62-8.92,1.48-10.92-2.28a10.52,10.52,0,0,1,.1-10.85C43.33,62.15,48.11,61.05,51.88,63Z"/><path class="cls-3" d="M129.45,87.87h3v6.8l.27.1,4.48-6.93h3.61l-5.61,8,6,8.91h-3.8c-1.5-2.41-3.09-4.93-4.86-7.76v7.76h-3.13Z"/><path class="cls-3" d="M148,97.25v5.1h5.82v2.4H145V87.86h8.65v2.4H148v4.48h5.29v2.51Z"/><path class="cls-2" d="M27,94.8h5.21v2.5H27v5.1h5.85v2.37H23.91V87.91h8.66v2.33H27Z"/><path class="cls-2" d="M122.71,79.29V62.45h8.75v2.28h-5.61v4.55H131v2.46h-5.18v5.13h5.79v2.42Z"/><path class="cls-2" d="M27.44,79.29V62.44H36.2v2.28H30.6v4.55h5.17v2.44H30.61v5.18h5.83v2.4Z"/><path class="cls-3" d="M183,76.89V79.3h-8.95V62.42h8.66v2.37h-5.6v4.52h5.22v2.41h-5.21v5.17Z"/><path class="cls-2" d="M56.73,62.41h8.64v2.33H59.84v4.53H65v2.45H59.85v5.22h5.79v2.39H56.73Z"/><path class="cls-2" d="M109.44,101.86v2.65C103.91,106.44,99,104,98.5,97.4A12.36,12.36,0,0,1,99,92.92c1.42-4.67,6-6.59,10.51-4.52l-.17,2.49a15.33,15.33,0,0,0-1.8-.67,4.26,4.26,0,0,0-5.15,2.66,8.55,8.55,0,0,0-.13,6.64,4.39,4.39,0,0,0,6.1,2.7C108.65,102.11,108.94,102,109.44,101.86Z"/><path class="cls-3" d="M14.54,90.29v4.6h5.09v2.47H14.55v7.38H11.43V87.88h8.45v2.41Z"/><path class="cls-3" d="M98.07,64.72v4.76h5.09v2.39h-5.1V79.3H94.92V62.44h8.49v2.28Z"/><path class="cls-3" d="M175.91,87.9v2.48h-3.6v14.39h-3.13V90.44H165.5V87.9Z"/><path class="cls-3" d="M88.18,104.78H79.79V87.89h3.06v14.35h5.33Z"/><path class="cls-3" d="M40.55,104.79h-3V87.87h3Z"/><path class="cls-3" d="M94.75,104.77h-3V87.89h3Z"/><path class="cls-4" d="M158.59,87.87h3v16.87h-3Z"/><path class="cls-5" d="M71,35.92v6H68V35l.57.92Z"/><path class="cls-1" d="M140.94,28.27V16.71l.28-.05,2.37,9.19h-2.26Z"/><path class="cls-6" d="M20,37.14V41.9H17.1V37.15Z"/><path class="cls-3" d="M203.13,72.62v-2.3h5.54v2.3Z"/><path class="cls-1" d="M64.82,28.47l5.3-.21Z"/><path class="cls-2" d="M187.4,53.8h-7.17q-1.56-5.71-3.1-11.4H177V53.77h-4.72V35.07h7.18l3.06,11.29h.2V35.11h4.73Z"/><path class="cls-3" d="M135.86,35.07h5.7c0,.46.07.92.07,1.37,0,3.4,0,6.8,0,10.2.09,6.52-4.42,8.08-9,7.41-3.59-.53-5.36-2.49-5.5-6.16-.14-4.11,0-8.23,0-12.35a1.64,1.64,0,0,1,.13-.44h5.51c0,.51.07,1,.07,1.44,0,3.64,0,7.28,0,10.91,0,1.8.46,2.57,1.48,2.61s1.58-.77,1.58-2.61q0-5.4,0-10.8Z"/><path class="cls-3" d="M157.6,35.06h12v4.17h-6.24v2.89h5.76V46.3h-5.8v3.32h6.55v4.17H157.6Z"/><path class="cls-3" d="M150.16,49.43H156v4.35H144.54V35.1h5.62Z"/><path class="cls-3" d="M30.11,28.29H23.39C22.94,24.18,22.48,20.11,22,16l-.21,0L20.17,28.26H13.43L10,9.63h5.76l1.39,11.25h.18L18.8,9.64h6.47Q26,15.2,26.74,20.82l.18,0c.49-3.73,1-7.46,1.46-11.23h5.24C32.45,15.85,31.29,22,30.11,28.29Z"/><path class="cls-3" d="M35.23,28.24V9.63h12v4H40.93v2.86h5.81v4.25H41v3.34h6.48v4.11Z"/><path class="cls-3" d="M99.42,27.31l-.34.91H93.7V9.65h11.58v4H99.43V16.8h5.46V21H99.42v6.29Z"/><path class="cls-1" d="M38.92,44.54c-.2,1.29-.34,2.68-.65,4a1.87,1.87,0,0,1-1.94,1.62,2,2,0,0,1-1.9-1.7,14.67,14.67,0,0,1,0-8c.27-1,.8-1.81,2-1.79a2,2,0,0,1,2,1.75C38.64,41.73,38.73,43.09,38.92,44.54Z"/><path class="cls-1" d="M85.59,19.28c-.29,1.53-.45,2.75-.76,3.93A1.86,1.86,0,0,1,83,24.7a1.83,1.83,0,0,1-1.86-1.42,13.64,13.64,0,0,1,0-8.79c.28-.8.92-1.49,1.78-1.27a2.67,2.67,0,0,1,1.75,1.32A37,37,0,0,1,85.59,19.28Z"/></g></g></svg>