<svg xmlns="http://www.w3.org/2000/svg" viewBox="0 0 208.3 43.1" width="380"><path d="m54.1 9.2 1.9 7.9 1.9-7.9h1.3L61 17l1.9-7.9h1.4l-2.4 9.7h-1.7L58.4 12l-1.7 6.9H55l-2.4-9.7h1.5zm13 .7c0 .5-.4.9-.9.9s-.9-.4-.9-.9.4-.9.9-.9c.6 0 .9.4.9.9zm-.2 2v6.9h-1.4v-6.9h1.4zm5.6 2.1c-.1-.7-.5-1.1-1.2-1.1s-1.1.4-1.1.9.2.7 1.6 1.1c1 .3 1.5.5 1.8.8s.4.7.4 1.2c0 1.3-1 2.2-2.7 2.2-1.8 0-2.8-.8-2.8-2.4h1.3c.1.9.5 1.3 1.4 1.3.8 0 1.3-.4 1.3-1 0-.3-.1-.5-.4-.7-.2-.1-.4-.2-1.5-.5-.8-.2-1.2-.4-1.4-.7-.3-.3-.4-.7-.4-1.2 0-1.3 1-2.1 2.6-2.1s2.5.8 2.6 2.2h-1.5zm6.7 0c-.1-.7-.5-1.1-1.2-1.1s-1.1.4-1.1.9.2.7 1.6 1.1c1 .3 1.5.5 1.8.8s.4.7.4 1.2c0 1.3-1 2.2-2.7 2.2-1.8 0-2.8-.8-2.8-2.4h1.3c.1.9.5 1.3 1.4 1.3.8 0 1.3-.4 1.3-1 0-.3-.1-.5-.4-.7-.2-.1-.4-.2-1.5-.5-.8-.2-1.2-.4-1.4-.7-.3-.3-.4-.7-.4-1.2 0-1.3 1-2.1 2.6-2.1s2.5.8 2.6 2.2h-1.5zm4 1.7c.1 1.4.7 2.2 1.8 2.2.7 0 1.2-.3 1.4-.9l1.3.1c-.4 1.3-1.4 2-2.8 2-1.9 0-3.2-1.4-3.2-3.5s1.3-3.7 3.2-3.7c1.8 0 3 1.4 3 3.6v.3l-4.7-.1zm3.2-1.1c-.1-1.2-.7-1.7-1.6-1.7s-1.4.6-1.7 1.7h3.3zm4.2-2.7c.1.3.1.5.1.9.5-.7 1.2-1.1 2.1-1.1s1.6.4 2 1.1c.2.5.3.8.3 2v4h-1.4v-3.7c0-.8 0-1.2-.2-1.4-.2-.4-.6-.6-1.1-.6-.6 0-1 .3-1.3.8-.2.3-.2.7-.2 1.4V19h-1.4v-4.5c0-1.6 0-1.8-.2-2.4l1.3-.2zm10 2.1c-.1-.7-.5-1.1-1.2-1.1s-1.1.4-1.1.9.2.7 1.6 1.1c1 .3 1.5.5 1.8.8s.4.7.4 1.2c0 1.3-1 2.2-2.7 2.2-1.8 0-2.8-.8-2.8-2.4h1.3c.1.9.5 1.3 1.4 1.3.8 0 1.3-.4 1.3-1 0-.3-.1-.5-.4-.7-.2-.1-.4-.2-1.5-.5-.8-.2-1.2-.4-1.4-.7-.3-.3-.4-.7-.4-1.2 0-1.3 1-2.1 2.6-2.1s2.5.8 2.6 2.2h-1.5zm7 .2c-.1-.9-.5-1.3-1.3-1.3-1 0-1.6 1-1.6 2.5s.6 2.5 1.7 2.5c.8 0 1.2-.4 1.3-1.4h1.4c-.1 1.6-1.1 2.6-2.7 2.6-1.9 0-3.1-1.5-3.1-3.6s1.2-3.7 3.1-3.7c1.5 0 2.5.9 2.7 2.5l-1.5-.1zm4.3-5.1v3.6c.5-.6 1.2-.9 2-.9s1.6.3 1.9.9c.3.4.4.9.4 2.2v4h-1.4v-3.7c0-.8 0-1.2-.2-1.4-.2-.4-.6-.6-1.1-.6-.6 0-1 .3-1.3.8-.2.3-.2.7-.2 1.4v3.7h-1.4V9.4l1.3-.3zm6 4.8c.1-.7.3-1.1.7-1.5.5-.4 1.2-.6 2.1-.6 1.2 0 2 .4 2.3 1.1.2.4.2.8.2 1.6v2.7c0 .9 0 1.3.2 1.7h-1.3c-.1-.3-.1-.5-.1-.9-.4.7-1 1-2 1-1.4 0-2.4-.8-2.4-2 0-1 .6-1.7 1.6-2.1.6-.2 1-.3 2.6-.6v-.2c0-.9-.3-1.2-1.2-1.2-.8 0-1.2.3-1.4.9l-1.3.1zm4 1.4c-2 .3-2.7.7-2.7 1.5 0 .6.5 1 1.2 1 .6 0 1.1-.3 1.3-.7.1-.3.2-.6.2-1.3v-.5zm6.5-3.4V13h-1.6v5.8h-1.4V13h-.9v-1.1h.9v-.4c0-1 .1-1.4.3-1.8.3-.5.9-.8 1.6-.8.4 0 .9.1 1.4.3v1.2c-.5-.2-.8-.2-1.1-.2-.4 0-.6.2-.7.5 0 .2-.1.5-.1 1v.3l1.6-.1zm4.8 0V13h-1.5v3.6c0 .8.2 1 .7 1 .3 0 .6-.1 1-.2v1.2c-.5.2-.9.3-1.4.3-.7 0-1.3-.3-1.6-.7-.2-.3-.2-.6-.2-1.3V16l.1-3h-1.1v-1.1h1.1v-2h1.4v2h1.5zm5.2 2.1c-.1-.7-.5-1.1-1.2-1.1s-1.1.4-1.1.9.2.7 1.6 1.1c1 .3 1.5.5 1.8.8s.4.7.4 1.2c0 1.3-1 2.2-2.6 2.2-1.8 0-2.8-.8-2.8-2.4h1.4c.1.9.5 1.3 1.4 1.3.8 0 1.3-.4 1.3-1 0-.3-.1-.5-.4-.7-.2-.1-.4-.2-1.5-.5-.8-.2-1.1-.4-1.4-.7-.3-.3-.4-.7-.4-1.2 0-1.3 1-2.1 2.6-2.1s2.5.8 2.6 2.2h-1.7zm3.7-2.1 1.8 5.3 1.7-5.3h1.5l-2.4 6.9H143l-2.4-6.9h1.5zm6.9 3.8c.1 1.4.7 2.2 1.8 2.2.7 0 1.1-.3 1.4-.9l1.3.1c-.4 1.3-1.4 2-2.8 2-1.9 0-3.2-1.4-3.2-3.5s1.3-3.7 3.2-3.7c1.8 0 3 1.4 3 3.6v.3l-4.7-.1zm3.2-1.1c-.1-1.2-.6-1.7-1.6-1.7s-1.4.6-1.6 1.7h3.2zm4.3-2.7c.1.3.1.7.1 1.1v.4c.5-1.1 1.1-1.6 1.9-1.6.2 0 .4 0 .7.2v1.4c-.4-.2-.7-.3-1-.3-.6 0-1 .3-1.2.9-.2.4-.2.9-.2 1.7v3.2h-1.4v-4.7c0-1.5 0-1.6-.1-2.2l1.2-.1zm5.2-2.8v3.8c.6-.8 1.1-1.1 1.9-1.1 1.6 0 2.7 1.5 2.7 3.6s-1.2 3.6-2.9 3.6c-.9 0-1.4-.3-1.9-1.1 0 .4 0 .7-.1.9h-1.3c.1-.5.1-.8.1-1.9V9l1.5.1zm0 6.3c0 1.4.6 2.4 1.6 2.4s1.6-.9 1.6-2.4-.6-2.4-1.6-2.4-1.6.9-1.6 2.4zm7.6-3.5V16c0 .6.1 1 .2 1.2.2.3.6.5 1.1.5.6 0 1-.2 1.3-.7.2-.3.2-.7.2-1.3V12h1.4v4.8c0 1.5 0 1.5.2 2.1h-1.4c-.1-.2-.1-.5-.1-.9-.5.7-1 1-1.9 1s-1.7-.4-2.1-1c-.2-.4-.4-1-.4-1.9V12l1.5-.1zm7.3 0c.1.3.1.5.1.9.5-.7 1.2-1.1 2.1-1.1s1.6.4 2 1.1c.2.5.3.8.3 2v4h-1.4v-3.7c0-.8 0-1.2-.2-1.4-.2-.4-.6-.6-1.1-.6-.6 0-1 .3-1.3.8-.2.3-.2.7-.2 1.4V19h-1.4v-4.5c0-1.6 0-1.8-.2-2.4l1.3-.2zm12.1 4.8c0 1.4 0 1.7.1 2.1h-1.4c-.1-.3-.1-.5-.1-.7v-.3c-.5.8-1 1.1-1.9 1.1-1.7 0-2.8-1.4-2.8-3.5s1.2-3.7 2.8-3.7c.8 0 1.3.3 1.9 1V9h1.4v7.7zm-4.6-1.3c0 1.5.6 2.4 1.6 2.4s1.6-.9 1.6-2.4-.6-2.4-1.6-2.4-1.6.9-1.6 2.4zm-130.3 9 2.8 8.4 2.7-8.4h1.1l-3.3 9.7H56l-3.3-9.7h1.1zm9.3.6c0 .4-.3.7-.7.7s-.7-.3-.7-.7.3-.8.8-.8.6.4.6.8zm-.2 2.2v6.9h-1.1v-6.9h1.1zm2.6 3.6c0 1.7.7 2.6 2 2.6.8 0 1.2-.3 1.6-1l.9.1c-.4 1.2-1.3 1.8-2.6 1.8-1.8 0-3-1.4-3-3.5s1.2-3.7 3-3.7c1.7 0 2.8 1.4 2.8 3.5v.3l-4.7-.1zm3.7-.8c-.1-1.4-.7-2.2-1.8-2.2s-1.6.7-1.8 2.2h3.6zm3.5-2.8c.1.3.1.7.1 1.1v.4c.5-1.2 1-1.7 1.8-1.7.3 0 .5.1.8.2v1c-.5-.2-.7-.3-.9-.3-.5 0-1 .4-1.3 1.1-.2.5-.3 1.1-.3 2v3.1h-1v-4.5c0-1.6 0-1.7-.1-2.4h.9zm5-2.8v9.7h-1.1v-9.7h1.1zm1.9 4.6c.2-1.3 1-2 2.6-2 1.1 0 1.9.4 2.2 1.1.1.3.2.7.2 1.5v2.6c0 1 0 1.4.2 1.8h-1c-.1-.3-.1-.5-.2-.9-.4.7-1.1 1.1-2 1.1-1.3 0-2.2-.8-2.2-2 0-1 .6-1.7 1.6-2.1.7-.2 1.3-.4 2.6-.6v-.3c0-1-.4-1.4-1.4-1.4-.9 0-1.4.3-1.5 1.1l-1.1.1zm2.1-3.9c0 .4-.3.8-.8.8s-.8-.3-.8-.8c0-.4.3-.8.8-.8s.8.4.8.8zm1.8 5.3c-2.3.4-3.1.9-3.1 1.8 0 .7.5 1.2 1.3 1.2.7 0 1.2-.3 1.5-.8.2-.3.3-.8.3-1.5v-.7zm.7-5.3c0 .4-.3.8-.8.8s-.8-.3-.8-.8c0-.4.3-.8.8-.8s.8.4.8.8zm3.1 2.1c.1.3.2.6.1 1 .5-.8 1.2-1.2 2.1-1.2s1.7.4 2 1.1c.2.5.2.6.2 2V34h-1v-3.9c0-1 0-1.3-.2-1.6-.2-.4-.6-.7-1.2-.7s-1.2.3-1.5.8c-.2.4-.3.8-.3 1.5v3.8h-1v-4.5c0-1.6 0-1.7-.2-2.3l1 .1zM99 32c0 1.3 0 1.7.1 2h-1c-.1-.3-.1-.5-.1-.7v-.2c-.5.8-1.1 1.2-1.9 1.2-1.7 0-2.8-1.4-2.8-3.5s1.1-3.7 2.7-3.7c.9 0 1.5.3 1.9 1.2v-3.8h1c.1-.1.1 7.5.1 7.5zm-4.6-1.3c0 1.7.7 2.7 1.8 2.7s1.8-1.1 1.8-2.7-.7-2.7-1.8-2.7-1.8.9-1.8 2.7zm7.3.1c0 1.7.7 2.6 2 2.6.8 0 1.2-.3 1.6-1l.9.1c-.4 1.2-1.3 1.8-2.6 1.8-1.8 0-3-1.4-3-3.5s1.2-3.7 3-3.7c1.7 0 2.8 1.4 2.8 3.5v.3l-4.7-.1zm3.7-.8c-.1-1.4-.7-2.2-1.8-2.2s-1.6.7-1.8 2.2h3.6zm3.5-2.8c.1.3.1.7.1 1.1v.4c.5-1.2 1-1.7 1.8-1.7.3 0 .5.1.8.2v1c-.5-.2-.6-.3-.9-.3-.5 0-1 .4-1.3 1.1-.2.5-.3 1.1-.3 2v3.1h-1v-4.5c0-1.6 0-1.7-.1-2.4h.9zm4.9 0c.1.3.1.7.1 1.1v.4c.5-1.2 1-1.7 1.8-1.7.3 0 .5.1.8.2v1c-.5-.2-.6-.3-.9-.3-.5 0-1 .4-1.3 1.1-.2.5-.3 1.1-.3 2v3.1h-1v-4.5c0-1.6 0-1.7-.1-2.4h.9zm4.5 3.6c0 1.7.7 2.6 2 2.6.8 0 1.2-.3 1.6-1l.9.1c-.4 1.2-1.3 1.8-2.6 1.8-1.8 0-3-1.4-3-3.5s1.2-3.7 3-3.7c1.7 0 2.8 1.4 2.8 3.5v.3l-4.7-.1zm3.6-.8c-.1-1.4-.7-2.2-1.8-2.2s-1.6.7-1.8 2.2h3.6zm8.2-2h-1.4c.4.3.6.9.6 1.6s-.2 1.2-.7 1.5c-.3.2-.8.4-1.6.6-.7.2-.8.2-1 .3-.3.1-.4.3-.4.5 0 .3.2.3 1.4.5 1.3.1 1.7.2 2.2.5.6.3.9.9.9 1.6 0 1.3-1.2 2.1-3.1 2.1s-3.1-.8-3.1-2c0-.8.4-1.3 1.4-1.7-.5-.2-.7-.4-.7-.8 0-.5.3-.8 1.2-1.1-.9-.4-1.4-1-1.4-2 0-1.4 1-2.3 2.5-2.3.4 0 .7 0 1.1.2l2.1-.1v.6zm-5.3 7c0 .7.9 1.2 2.2 1.2s2.1-.5 2.1-1.2-.8-1.2-2.2-1.2c-1.3 0-2.1.4-2.1 1.2zm.6-5.5c0 .9.6 1.4 1.5 1.4s1.5-.6 1.5-1.4-.6-1.5-1.4-1.5c-1-.1-1.6.6-1.6 1.5zm7.3-4.5c0 .4-.3.7-.7.7s-.7-.3-.7-.7.3-.8.8-.8.6.4.6.8zm-.2 2.2v6.9h-1.1v-6.9h1.1zm7.6 3.5c0 2.1-1.2 3.6-3 3.6s-3-1.5-3-3.7c0-2.1 1.2-3.6 3-3.6s3 1.5 3 3.7zm-4.9-.1c0 1.7.8 2.8 2 2.8s2-1.1 2-2.8-.8-2.7-2-2.7-2 1.1-2 2.7zm7.4-3.4c.1.3.1.6.1 1 .5-.8 1.2-1.2 2.1-1.2s1.7.4 2 1.1c.2.5.2.6.2 2V34h-1v-3.9c0-1 0-1.3-.2-1.6-.2-.4-.6-.7-1.2-.7s-1.2.3-1.5.8c-.2.4-.3.8-.3 1.5v3.8h-1v-4.5c0-1.6 0-1.7-.2-2.3l1 .1zm12.1-2.8c1.3 0 1.8.1 2.4.2.9.3 1.5 1.1 1.5 2.2s-.5 1.8-1.6 2.1c1.4.3 2.1 1.1 2.1 2.5 0 1.2-.6 2.2-1.6 2.5-.6.2-1.2.2-2.8.2H153v-9.7h1.7zm.2 4.2c.9 0 1.4-.1 1.8-.3.5-.2.7-.8.7-1.4 0-.7-.3-1.2-.9-1.4-.4-.2-.7-.2-1.7-.2h-.8v3.2l.9.1zm.1 4.6c1.2 0 1.6-.1 2.1-.2.5-.2.9-.8.9-1.6s-.4-1.4-1.1-1.7c-.4-.1-.8-.2-1.8-.2h-1v3.7h.9zm11.4-2.5c0 2.1-1.2 3.6-3 3.6s-3-1.5-3-3.7c0-2.1 1.2-3.6 3-3.6s3 1.5 3 3.7zm-5-.1c0 1.7.8 2.8 2 2.8s2-1.1 2-2.8-.8-2.7-2-2.7-2 1.1-2 2.7zm11.9 1.4c0 1.3 0 1.7.1 2h-1c-.1-.3-.1-.5-.1-.7v-.2c-.5.8-1.1 1.2-1.9 1.2-1.7 0-2.8-1.4-2.8-3.5s1.1-3.7 2.7-3.7c.9 0 1.5.3 1.9 1.2v-3.8h1l.1 7.5zm-4.6-1.3c0 1.7.7 2.7 1.8 2.7s1.8-1.1 1.8-2.7-.7-2.7-1.8-2.7-1.8.9-1.8 2.7zm7.3.1c0 1.7.7 2.6 2 2.6.8 0 1.2-.3 1.6-1l.9.1c-.4 1.2-1.3 1.8-2.6 1.8-1.8 0-3-1.4-3-3.5s1.2-3.7 3-3.7c1.7 0 2.8 1.4 2.8 3.5v.3l-4.7-.1zm3.7-.8c-.1-1.4-.7-2.2-1.8-2.2s-1.6.7-1.8 2.2h3.6zm3.4-2.8c.1.3.1.6.1 1 .5-.8 1.2-1.2 2.1-1.2s1.7.4 2 1.1c.2.5.2.6.2 2V34h-1v-3.9c0-1 0-1.3-.2-1.6-.2-.4-.6-.7-1.2-.7s-1.2.3-1.5.8c-.2.4-.3.8-.3 1.5v3.8h-1v-4.5c0-1.6 0-1.7-.2-2.3l1 .1zm10 1.9c-.1-.8-.6-1.2-1.4-1.2-.8 0-1.3.4-1.3 1s.3.8 1.6 1.2c1.1.3 1.5.5 1.8.8s.4.7.4 1.2c0 1.3-1 2.2-2.5 2.2-1.7 0-2.6-.8-2.6-2.3h1c.1 1 .6 1.5 1.6 1.5.9 0 1.5-.5 1.5-1.2 0-.4-.1-.6-.4-.8-.2-.2-.3-.2-1.5-.5-1.3-.4-1.8-.9-1.8-1.9 0-1.2 1-1.9 2.4-1.9s2.3.7 2.4 2.1l-1.2-.2zm3.4 1.7c0 1.7.7 2.6 2 2.6.8 0 1.2-.3 1.6-1l.9.1c-.4 1.2-1.3 1.8-2.6 1.8-1.8 0-3-1.4-3-3.5s1.2-3.7 3-3.7c1.7 0 2.8 1.4 2.8 3.5v.3l-4.7-.1zm3.7-.8c-.1-1.4-.7-2.2-1.8-2.2s-1.6.7-1.8 2.2h3.6zm3.4.8c0 1.7.7 2.6 2 2.6.8 0 1.2-.3 1.6-1l.9.1c-.4 1.2-1.3 1.8-2.6 1.8-1.8 0-3-1.4-3-3.5s1.2-3.7 3-3.7c1.7 0 2.8 1.4 2.8 3.5v.3l-4.7-.1zm3.6-.8c-.1-1.4-.7-2.2-1.8-2.2s-1.6.7-1.8 2.2h3.6z" style="fill:#1a1a18"/><path d="M5.7 12.5h1.8c.3 0 .5.2.5.5v1.8c0 .3-.2.5-.5.5H5.7c-.3 0-.5-.2-.5-.5V13c0-.2.2-.5.5-.5zm6.9-.7h2.7c.4 0 .8.3.8.8v2.7c0 .4-.3.8-.8.8h-2.7c-.4 0-.8-.3-.8-.8v-2.7c0-.4.4-.8.8-.8zm7.6 0H23c.4 0 .8.3.8.8v2.7c0 .4-.3.8-.8.8h-2.7c-.4 0-.8-.3-.8-.8v-2.7c0-.4.3-.8.7-.8zm7.7 0h2.7c.4 0 .8.3.8.8v2.7c0 .4-.3.8-.8.8h-2.7c-.4 0-.8-.3-.8-.8v-2.7c0-.4.4-.8.8-.8zm-15.3 7.7h2.7c.4 0 .8.3.8.8V23c0 .4-.3.8-.8.8h-2.7c-.4 0-.8-.3-.8-.8v-2.7c0-.5.4-.8.8-.8zm15.3 0h2.7c.4 0 .8.3.8.8V23c0 .4-.3.8-.8.8h-2.7c-.4 0-.8-.3-.8-.8v-2.7c0-.5.4-.8.8-.8zm-15.3 7.6h2.7c.4 0 .8.3.8.8v2.7c0 .4-.3.8-.8.8h-2.7c-.4 0-.8-.3-.8-.8v-2.7c0-.4.4-.8.8-.8zm7.6 0H23c.4 0 .8.3.8.8v2.7c0 .4-.3.8-.8.8h-2.7c-.4 0-.8-.3-.8-.8v-2.7c0-.4.3-.8.7-.8zm7.7 0h2.7c.4 0 .8.3.8.8v2.7c0 .4-.3.8-.8.8h-2.7c-.4 0-.8-.3-.8-.8v-2.7c0-.4.4-.8.8-.8zM.3 13.1h1.1c.2 0 .3.1.3.3v1.1c0 .2-.1.3-.3.3H.3c-.2 0-.3-.1-.3-.3v-1.1c0-.2.1-.3.3-.3zm19.9 6.4H23c.4 0 .8.3.8.8V23c0 .4-.3.8-.8.8h-2.7c-.4 0-.8-.3-.8-.8v-2.7c0-.5.3-.8.7-.8zm-14.5.7h1.8c.3 0 .5.2.5.5v1.8c0 .3-.2.5-.5.5H5.7c-.3 0-.5-.2-.5-.5v-1.8c0-.3.2-.5.5-.5zm0 7.6h1.8c.3 0 .5.2.5.5v1.8c0 .3-.2.5-.5.5H5.7c-.3 0-.5-.2-.5-.5v-1.8c0-.2.2-.5.5-.5zm30-15.3h1.8c.3 0 .5.2.5.5v1.8c0 .3-.2.5-.5.5h-1.8c-.3 0-.5-.2-.5-.5V13c0-.2.2-.5.5-.5zm0 7.7h1.8c.3 0 .5.2.5.5v1.8c0 .3-.2.5-.5.5h-1.8c-.3 0-.5-.2-.5-.5v-1.8c0-.3.2-.5.5-.5zm0 7.6h1.8c.3 0 .5.2.5.5v1.8c0 .3-.2.5-.5.5h-1.8c-.3 0-.5-.2-.5-.5v-1.8c0-.2.2-.5.5-.5zM13 5.2h1.8c.3 0 .5.2.5.5v1.8c0 .3-.2.5-.5.5H13c-.3 0-.5-.2-.5-.5V5.7c0-.3.3-.5.5-.5zm7.7 0h1.8c.3 0 .5.2.5.5v1.8c0 .3-.2.5-.5.5h-1.8c-.3 0-.5-.2-.5-.5V5.7c0-.3.2-.5.5-.5zm7.6 0h1.8c.3 0 .5.2.5.5v1.8c0 .3-.2.5-.5.5h-1.8c-.3 0-.5-.2-.5-.5V5.7c0-.3.3-.5.5-.5zM13 35.2h1.8c.3 0 .5.2.5.5v1.8c0 .3-.2.5-.5.5H13c-.3 0-.5-.2-.5-.5v-1.8c0-.3.3-.5.5-.5zm7.7 0h1.8c.3 0 .5.2.5.5v1.8c0 .3-.2.5-.5.5h-1.8c-.3 0-.5-.2-.5-.5v-1.8c0-.3.2-.5.5-.5zm7.6 0h1.8c.3 0 .5.2.5.5v1.8c0 .3-.2.5-.5.5h-1.8c-.3 0-.5-.2-.5-.5v-1.8c0-.3.3-.5.5-.5zM.3 20.7h1.1c.2 0 .3.1.3.3v1.1c0 .2-.1.3-.3.3H.3c-.2 0-.3-.1-.3-.3V21c0-.1.1-.3.3-.3zm0 7.7h1.1c.2 0 .3.1.3.3v1.1c0 .2-.1.3-.3.3H.3c-.2 0-.3-.1-.3-.3v-1.1c0-.2.1-.3.3-.3zm41.5-15.3h1.1c.2 0 .3.1.3.3v1.1c0 .2-.1.3-.3.3h-1.1c-.2 0-.3-.1-.3-.3v-1.1c-.1-.2.1-.3.3-.3zm0 7.6h1.1c.2 0 .3.1.3.3v1.1c0 .2-.1.3-.3.3h-1.1c-.2 0-.3-.1-.3-.3V21c-.1-.1.1-.3.3-.3zm0 7.7h1.1c.2 0 .3.1.3.3v1.1c0 .2-.1.3-.3.3h-1.1c-.2 0-.3-.1-.3-.3v-1.1c-.1-.2.1-.3.3-.3zM13.4 0h1.1c.2 0 .3.1.3.3v1.1c0 .2-.1.3-.3.3h-1.1c-.2 0-.3-.1-.3-.3V.3c0-.2.1-.3.3-.3zM21 0h1.1c.2 0 .3.1.3.3v1.1c0 .2-.1.3-.3.3H21c-.2 0-.3-.1-.3-.3V.3c0-.2.2-.3.3-.3zm7.7 0h1.1c.2 0 .3.1.3.3v1.1c0 .2-.1.3-.3.3h-1.1c-.2 0-.3-.1-.3-.3V.3c0-.2.1-.3.3-.3zM13.4 41.4h1.1c.2 0 .3.1.3.3v1.1c0 .2-.1.3-.3.3h-1.1c-.2 0-.3-.1-.3-.3v-1.1c0-.1.1-.3.3-.3zm7.6 0h1.1c.2 0 .3.1.3.3v1.1c0 .2-.1.3-.3.3H21c-.2 0-.3-.1-.3-.3v-1.1c0-.1.2-.3.3-.3zm7.7 0h1.1c.2 0 .3.1.3.3v1.1c0 .2-.1.3-.3.3h-1.1c-.2 0-.3-.1-.3-.3v-1.1c0-.1.1-.3.3-.3z" style="fill:#888"/></svg>